<?xml version="1.0" encoding="utf-8"?>
<!DOCTYPE svg PUBLIC "-//W3C//DTD SVG 1.0//EN" "http://www.w3.org/TR/2001/REC-SVG-20010904/DTD/svg10.dtd">
<svg version="1.0" xmlns="http://www.w3.org/2000/svg" width="594px" height="536px" viewBox="0 0 594 536" preserveAspectRatio="xMidYMid meet">
   <defs>
      <linearGradient id="lg0" gradientUnits="userSpaceOnUse" x1="16.835016%" y1="45.708954%" x2="74.579124%" y2="82.649254%">
         <stop offset="0%" style="stop-color:rgb(55,86,135);"></stop>
         <stop offset="92%" style="stop-color:rgb(11,18,29);"></stop>
         <stop offset="100%" style="stop-color:rgb(4,4,5);"></stop>
      </linearGradient>
      <linearGradient id="lg1" gradientUnits="userSpaceOnUse" x1="41.077442%" y1="50.373135%" x2="63.636364%" y2="7.4626865%">
         <stop offset="0%" style="stop-color:rgb(5,5,5);"></stop>
         <stop offset="38%" style="stop-color:rgb(8,15,27);"></stop>
         <stop offset="39%" style="stop-color:rgb(8,16,27);"></stop>
         <stop offset="85%" style="stop-color:rgb(13,20,33);"></stop>
         <stop offset="86%" style="stop-color:rgb(12,20,32);"></stop>
         <stop offset="89%" style="stop-color:rgb(12,19,32);"></stop>
         <stop offset="90%" style="stop-color:rgb(11,19,31);"></stop>
         <stop offset="91%" style="stop-color:rgb(11,18,31);"></stop>
         <stop offset="100%" style="stop-color:rgb(4,9,18);"></stop>
      </linearGradient>
      <linearGradient id="lg2" gradientUnits="userSpaceOnUse" x1="32.82828%" y1="54.850746%" x2="77.27273%" y2="54.850746%">
         <stop offset="0%" style="stop-color:rgb(196,201,210);"></stop>
         <stop offset="11%" style="stop-color:rgb(173,178,185);"></stop>
         <stop offset="12%" style="stop-color:rgb(169,175,181);"></stop>
         <stop offset="14%" style="stop-color:rgb(161,166,173);"></stop>
         <stop offset="15%" style="stop-color:rgb(157,163,169);"></stop>
         <stop offset="17%" style="stop-color:rgb(149,154,161);"></stop>
         <stop offset="18%" style="stop-color:rgb(145,151,157);"></stop>
         <stop offset="19%" style="stop-color:rgb(142,147,154);"></stop>
         <stop offset="29%" style="stop-color:rgb(105,111,120);"></stop>
         <stop offset="31%" style="stop-color:rgb(98,106,114);"></stop>
         <stop offset="33%" style="stop-color:rgb(93,100,110);"></stop>
         <stop offset="46%" style="stop-color:rgb(61,70,82);"></stop>
         <stop offset="47%" style="stop-color:rgb(59,69,80);"></stop>
         <stop offset="72%" style="stop-color:rgb(25,35,49);"></stop>
         <stop offset="73%" style="stop-color:rgb(24,33,48);"></stop>
         <stop offset="74%" style="stop-color:rgb(23,33,47);"></stop>
         <stop offset="75%" style="stop-color:rgb(23,32,47);"></stop>
         <stop offset="97%" style="stop-color:rgb(15,23,39);"></stop>
         <stop offset="98%" style="stop-color:rgb(14,23,37);"></stop>
         <stop offset="100%" style="stop-color:rgb(14,22,35);"></stop>
      </linearGradient>
      <linearGradient id="lg3" gradientUnits="userSpaceOnUse" x1="35.858585%" y1="31.902985%" x2="67.508415%" y2="52.05224%">
         <stop offset="0%" style="stop-color:rgb(18,34,59);"></stop>
         <stop offset="31%" style="stop-color:rgb(37,53,76);"></stop>
         <stop offset="32%" style="stop-color:rgb(38,55,77);"></stop>
         <stop offset="36%" style="stop-color:rgb(44,60,81);"></stop>
         <stop offset="39%" style="stop-color:rgb(49,63,84);"></stop>
         <stop offset="55%" style="stop-color:rgb(73,84,98);"></stop>
         <stop offset="72%" style="stop-color:rgb(120,128,139);"></stop>
         <stop offset="83%" style="stop-color:rgb(167,172,180);"></stop>
         <stop offset="95%" style="stop-color:rgb(205,208,214);"></stop>
         <stop offset="97%" style="stop-color:rgb(210,214,218);"></stop>
         <stop offset="99%" style="stop-color:rgb(217,221,224);"></stop>
         <stop offset="100%" style="stop-color:rgb(218,221,224);"></stop>
      </linearGradient>
   </defs>
 <g fill="#040608">
  <path fill="url(#lg0)" d="M466.8 395.9 c-1 -0.5 -1.8 -1.9 -1.8 -2.9 0 -1.3 -0.7 -2 -2 -2 -1.4 0 -2 -0.7 -2 -2.4 0 -2.1 -0.5 -2.4 -5.9 -3 -5.2 -0.6 -6 -1 -6.5 -3.1 -0.4 -1.4 -1.3 -2.5 -2.1 -2.5 -3.2 0 -1.2 -2.9 3.8 -5.4 11.2 -5.7 22.6 -13.1 33.7 -21.9 0.8 -0.7 3.1 -2.3 5 -3.7 5.2 -3.7 6.9 -5 12.7 -10.4 5.2 -4.8 6.1 -5.2 4.4 -1.8 -0.5 0.9 -1.4 3.1 -2.1 4.7 -0.7 1.7 -1.6 3.8 -2.1 4.7 -0.5 1 -0.9 2.5 -0.9 3.3 0 0.8 -0.4 1.5 -1 1.5 -0.5 0 -1 0.9 -1 2 0 1.1 -0.4 2 -1 2 -0.5 0 -1 0.9 -1 2 0 1.1 -0.4 2 -0.8 2 -0.5 0 -2 2.1 -3.3 4.8 -1.3 2.6 -2.6 4.9 -3 5.2 -0.3 0.3 -3.4 4.8 -6.9 10 -8.4 12.6 -13.9 18.3 -16.2 16.9z"/>
  <path fill="url(#lg1)" d="M510.7 268 c-0.9 -1.1 -1.7 -2.4 -1.7 -2.8 0 -0.4 -1.4 -2.3 -3 -4.2 -1.6 -1.9 -3 -4.1 -3 -4.7 0 -0.7 -0.4 -1.3 -1 -1.3 -0.5 0 -1 -0.4 -1 -1 0 -0.6 2.7 -1 6 -1 l6 0 0 8.5 c0 4.7 -0.1 8.5 -0.3 8.5 -0.1 0 -1 -0.9 -2 -2z"/>
  <path d="M474.5 219.7 c-4 -4.9 -3.9 -4.7 -0.6 -4.7 2.8 0 3.1 0.3 3.1 3 0 3.2 -0.8 3.7 -2.5 1.7z"/>
  <path fill="url(#lg1)" d="M111.4 199.5 c1.6 -11 1.9 -12.6 2.7 -13.1 0.5 -0.3 0.9 -1.4 0.9 -2.5 0 -1 0.5 -2.8 1 -3.9 0.6 -1.1 1.5 -2.9 2 -4 0.5 -1.1 1 -2.7 1 -3.5 0 -0.8 0.4 -2.3 0.9 -3.3 0.5 -0.9 2.1 -4.2 3.5 -7.2 3.2 -6.6 6.9 -13.1 10.7 -18.7 1.6 -2.3 2.9 -4.6 2.9 -5.2 0 -0.6 0.4 -1.1 0.8 -1.1 0.4 0 1.6 -1.4 2.6 -3 3.3 -5.6 21.9 -25.1 35.6 -37.4 l6.5 -5.8 0.3 4.7 c0.4 5.9 -0.2 7.5 -2.8 7.5 -1.1 0 -2 0.5 -2 1 0 0.6 -1.5 2.6 -3.3 4.4 -1.9 1.9 -3.7 4.1 -4 5 -0.4 0.9 -1 1.6 -1.5 1.6 -0.5 0 -2.4 2.1 -4.2 4.8 -1.9 2.6 -5.3 6.7 -7.6 9.2 -8.9 9.4 -10.1 11.3 -10.7 16.5 -0.3 2.8 -0.8 6 -1.2 7.1 -0.9 2.9 1.1 3.5 8.5 2.7 5.8 -0.6 10 -2.7 10 -5.2 0 -0.6 1.6 -1.1 3.5 -1.1 2.4 0 3.5 0.5 3.5 1.5 0 0.8 0.7 1.5 1.5 1.5 0.8 0 1.5 0.7 1.5 1.5 0 0.8 -0.7 1.5 -1.5 1.5 -0.8 0 -1.5 0.5 -1.5 1 0 0.6 -0.5 1 -1 1 -1.2 0 -20.5 12.8 -23.5 15.6 -1.1 1.1 -3.7 3.2 -5.8 4.7 -2 1.6 -4.8 3.9 -6.2 5.3 -1.3 1.3 -2.8 2.4 -3.2 2.4 -0.8 0 -4.4 3.2 -15.1 13.4 l-5.4 5.1 0.6 -4z"/>
  <path fill="url(#lg1)" d="M435.3 180.2 c-3.6 -3.5 -16 -13.2 -16.8 -13.2 -0.3 0 -1.5 -0.9 -2.7 -2 -1.2 -1.1 -2.8 -2 -3.5 -2 -0.7 0 -1.3 -0.4 -1.3 -1 0 -0.5 -0.5 -1 -1.1 -1 -0.6 0 -3 -1.3 -5.4 -3 -2.4 -1.6 -5.1 -3 -5.9 -3 -0.9 0 -1.6 -0.4 -1.6 -0.9 0 -0.9 -27.8 -15.1 -29.7 -15.1 -0.7 0 -2.8 -0.9 -4.8 -2 -2 -1.1 -4.3 -2 -5.3 -2 -1.8 -0.1 -5.2 -2.3 -5.2 -3.4 0 -0.3 2 -0.6 4.5 -0.6 2.5 0 4.5 0.5 4.5 1 0 0.6 0.9 1 2 1 1.1 0 2 0.5 2 1 0 0.6 1.4 1 3 1 1.7 0 3 0.5 3 1 0 0.6 0.9 1 2 1 1.1 0 2 0.3 2 0.8 0 1 8.4 3.3 14.8 3.9 3.6 0.3 5.5 1 6.2 2.3 0.5 0.9 2.2 2 3.7 2.3 1.6 0.3 3.9 1.5 5.2 2.6 1.3 1.2 2.8 2.1 3.3 2.1 0.4 0 0.8 0.9 0.8 2 0 1.1 0.5 2 1.2 2 0.6 0 2 0.7 3 1.7 1 0.9 2.8 2.1 4.1 2.7 1.2 0.6 2.6 2.1 3.1 3.2 0.9 2 6.7 4.4 10.7 4.4 1.2 0 2.3 0.8 2.6 2 0.3 1.1 0.9 2 1.4 2 0.5 0 0.9 1.4 0.9 3 0 2 0.5 3 1.5 3 1 0 1.5 1 1.5 3 0 1.7 -0.2 3 -0.4 3 -0.1 0 -1.6 -1.3 -3.3 -2.8z"/>
  <path d="M189 143.6 c0 -2.3 0.4 -2.6 3.5 -2.6 5.3 0 4.6 1.3 -2.7 4.8 -0.5 0.2 -0.8 -0.8 -0.8 -2.2z"/>
  <path d="M489 142 c0 -2.2 0.4 -4 0.8 -4 0.5 0 1.8 1.8 3 4 l2.1 4 -3 0 c-2.7 0 -2.9 -0.2 -2.9 -4z"/>
  <path d="M208 135 c0 -1.6 0.7 -2 3.5 -2 3.9 0 4.3 0.6 1.8 2.6 -2.7 2 -5.3 1.7 -5.3 -0.6z"/>
  <path fill="url(#lg1)" d="M483 131.7 c0 -1.2 -0.9 -2.8 -2 -3.5 -1.1 -0.7 -2 -1.9 -2 -2.7 0 -0.8 -0.4 -1.5 -0.9 -1.5 -0.5 0 -1.5 -1.6 -2.1 -3.5 -0.8 -2.4 -1.9 -3.7 -3.6 -4.1 -1.3 -0.3 -2.4 -1 -2.4 -1.5 0 -0.5 -0.7 -0.9 -1.5 -0.9 -0.8 0 -1.5 -0.4 -1.5 -0.9 0 -1.1 -5.8 -7.1 -6.8 -7.1 -0.4 0 -1.3 -1.3 -2 -3 -0.8 -1.6 -2 -3 -2.8 -3 -0.8 0 -1.9 -1.1 -2.4 -2.5 -0.5 -1.4 -1.6 -2.5 -2.5 -2.5 -0.8 0 -4.8 -3.4 -8.8 -7.5 -4.1 -4.1 -7.7 -7.5 -8.1 -7.5 -1.3 0 -3.6 -2.8 -3.6 -4.3 0 -2.9 -1.2 -4.7 -3.1 -4.7 -1 0 -1.9 -0.4 -1.9 -0.9 0 -0.5 -1.3 -1.4 -3 -2 -2 -0.7 -3 -1.7 -3 -3 0 -1.8 -0.6 -2.1 -3.7 -2.1 -2.1 0 -5.1 -0.7 -6.7 -1.5 -1.5 -0.8 -3.9 -1.5 -5.1 -1.5 -1.3 0 -2.5 -0.6 -2.8 -1.3 -0.2 -0.7 -2.5 -1.8 -5.1 -2.5 -2.5 -0.6 -4.6 -1.6 -4.6 -2.2 0 -0.5 -0.9 -1 -2 -1 -1.3 0 -2 -0.7 -2 -2 0 -2.1 3.3 -2.9 4.5 -1 0.3 0.5 1.7 1 3 1 1.3 0 2.7 0.5 3 1 0.3 0.6 1.7 1 3 1 1.3 0 2.7 0.5 3 1 0.3 0.6 1.4 1 2.3 1 0.9 0 2.8 0.9 4.2 2 1.4 1.1 3.3 2 4.3 2 1 0 2.7 0.9 3.9 2 1.2 1.1 2.9 2 3.8 2 0.9 0 2.6 0.9 3.8 2 1.2 1.1 2.8 2 3.7 2 0.8 0 1.5 0.4 1.5 0.8 0 0.5 1.2 1.5 2.7 2.3 1.5 0.8 4.6 3.1 6.8 5.2 2.2 2 4.4 3.7 4.9 3.7 1.2 0 21.5 20.6 25.1 25.5 1.7 2.2 3.2 4.2 3.5 4.5 0.3 0.3 1.1 1.7 1.9 3.3 0.8 1.5 1.8 2.7 2.3 2.7 0.4 0 0.8 0.5 0.8 1.1 0 0.6 0.9 2.4 2 3.9 1.1 1.6 3.3 5.4 5 8.4 l2.9 5.6 -3 0 c-2.3 0 -2.9 -0.4 -2.9 -2.3z"/>
  <path d="M218 131 c0 -1.7 0.7 -2 4.5 -2 2.5 0 4.5 0.3 4.5 0.6 0 1.4 -3.6 3.3 -6.2 3.4 -2.1 0 -2.8 -0.5 -2.8 -2z"/>
  <path d="M341.3 130.3 c-2.8 -1.1 -1.3 -3.3 2.2 -3.3 2.8 0 3.5 0.4 3.5 2 0 2 -2.6 2.6 -5.7 1.3z"/>
  <path d="M323.2 125.8 c-2 -2 -1.4 -2.8 2.3 -2.8 2.8 0 3.5 0.4 3.5 2 0 2.3 -3.8 2.8 -5.8 0.8z"/>
  <path d="M193 84.4 c0 -0.9 2.4 -3 4.3 -3.7 1.3 -0.5 1.7 -0.1 1.7 1.8 0 2.1 -0.5 2.5 -3 2.5 -1.6 0 -3 -0.3 -3 -0.6z"/>
  <path d="M208 74.7 c0 -1.2 2.3 -2.6 10.3 -6.5 0.4 -0.2 0.7 1.1 0.7 2.7 0 2.4 -0.4 3.1 -2 3.1 -1.1 0 -2 0.5 -2 1 0 0.6 -1.6 1 -3.5 1 -2.3 0 -3.5 -0.5 -3.5 -1.3z"/>
  <path d="M378 49 c0 -2.2 2.8 -2.7 6.1 -1 3.1 1.7 2.2 3 -2.1 3 -3.3 0 -4 -0.3 -4 -2z"/>
  <path d="M355 45 c0 -1.6 0.7 -2 3.3 -2 3 0.1 6.7 1.9 6.7 3.4 0 0.3 -2.2 0.6 -5 0.6 -4.3 0 -5 -0.3 -5 -2z"/>
 </g>
 <g fill="#09101b">
  <path fill="url(#lg0)" d="M321.4 475.5 c-0.4 -0.8 -0.3 -3.6 0.1 -6.1 l0.7 -4.6 3.9 0.4 c2.7 0.2 3.9 0 3.9 -0.9 0 -0.8 1.2 -1.3 3 -1.3 1.7 0 3 -0.4 3 -1 0 -0.5 1.4 -1 3 -1 1.7 0 3 -0.4 3 -1 0 -0.5 1.6 -1 3.5 -1 1.9 0 3.5 -0.4 3.5 -1 0 -0.5 0.9 -1 2 -1 1.1 0 2 -0.4 2 -1 0 -0.5 1.4 -1 3 -1 1.7 0 3 -0.4 3 -1 0 -0.5 1.4 -1 3 -1 1.9 0 3 -0.5 3 -1.4 0 -0.8 0.7 -1.6 1.5 -2 0.8 -0.3 1.5 -1.5 1.5 -2.6 0 -1.1 0.3 -2 0.8 -2 0.4 0 0.5 -2.2 0.4 -5 -0.4 -5 -0.4 -5 2.7 -5 2.4 0 3.1 -0.4 3.1 -2 0 -1.1 0.5 -2 1 -2 0.6 0 1 -0.9 1 -2 0 -1.5 0.7 -2 2.5 -2 2.1 0 2.5 -0.5 2.5 -3 0 -2 -0.5 -3 -1.5 -3 -0.8 0 -1.5 -0.9 -1.5 -1.9 0 -1.6 -1 -2 -6.4 -2.6 -6.1 -0.7 -6.5 -0.9 -7.1 -3.6 -0.4 -1.6 -1.1 -2.9 -1.6 -2.9 -0.5 0 -0.9 -1.6 -0.9 -3.5 0 -2.9 0.4 -3.6 2.8 -4.1 1.5 -0.4 2.9 -1 3.2 -1.3 0.8 -1 9.2 -3.3 14 -3.8 2.5 -0.2 5.4 -0.8 6.5 -1.3 1.1 -0.5 3.6 -1.1 5.5 -1.5 1.9 -0.3 5 -0.8 6.8 -1.2 1.8 -0.3 3.5 -0.9 3.8 -1.4 0.3 -0.5 1.8 -0.9 3.4 -0.9 1.6 0 3.2 -0.4 3.5 -1 0.3 -0.5 1.9 -1 3.5 -1 1.6 0 3.2 -0.4 3.5 -1 0.3 -0.5 1.3 -1 2.1 -1 0.8 0 3.6 -0.9 6.2 -2.1 2.6 -1.2 5.6 -2.5 6.7 -2.9 1.1 -0.4 4.4 -1.9 7.3 -3.2 5.2 -2.5 10.3 -2.7 9.9 -0.4 -0.1 0.6 0.8 1.1 2 1 1.2 0 2 0.3 1.7 0.8 -0.3 0.4 0.2 0.8 1.1 0.8 1 0 1.3 0.5 0.9 1.3 -0.6 0.9 -0.4 0.9 0.8 -0.1 1.1 -0.9 1.8 -1 2.3 -0.2 0.3 0.5 1.3 1 2.1 1 0.8 0 1.2 -0.4 0.9 -1 -0.3 -0.6 0.1 -0.7 0.9 -0.4 0.9 0.3 1.6 1.4 1.6 2.3 0 1 0.7 1.8 1.5 1.8 0.8 0 1.5 -0.4 1.5 -0.9 0 -0.4 0.4 -0.8 0.9 -0.8 1 0 0.2 5 -1.1 6.7 -0.6 0.7 -0.3 1.5 0.8 2.1 1.7 0.9 1.6 1.3 -0.8 4.3 -3.8 5 -9.5 10.7 -16.8 16.9 -3.6 3 -7.2 6.2 -8 7 -2.5 2.5 -17.9 14 -18.8 14 -0.5 0 -1.7 0.8 -2.8 1.8 -1.9 1.6 -3.1 2.3 -8.6 5.5 -1.3 0.6 -2.5 1.4 -2.8 1.7 -0.3 0.3 -3 1.8 -6 3.3 -3 1.5 -6.8 3.4 -8.5 4.4 -1.6 0.9 -3.8 2 -4.7 2.5 -1 0.4 -2.6 1.2 -3.5 1.7 -1 0.5 -4 1.9 -6.8 3.1 -4.8 2.2 -7.1 3.1 -12.5 5.3 -1.4 0.5 -3.3 1.3 -4.2 1.8 -1 0.5 -2.6 0.9 -3.6 0.9 -1 0 -2.2 0.4 -2.7 0.8 -0.6 0.5 -3 1.4 -5.5 2.1 -2.5 0.7 -5.3 1.7 -6.2 2.2 -1 0.5 -2.9 0.9 -4.2 0.9 -1.4 0 -2.8 0.5 -3.1 1 -0.3 0.6 -2.1 1 -4 1 -1.9 0 -3.7 0.5 -4 1 -1 1.7 -9.5 1.2 -10.1 -0.5z"/>
  <path d="M396.1 279.3 c2.2 -2.8 9.8 -10.3 10.4 -10.3 0.3 0 0.5 1.4 0.5 3 0 2.3 -0.4 3 -2 3 -1.2 0 -2 0.7 -2 1.6 0 2.4 -2.5 4.4 -5.6 4.4 -2.4 0 -2.5 -0.2 -1.3 -1.7z"/>
  <path d="M449 268 c0 -2.7 0.3 -3 3.1 -3 2.9 0 3 0.2 1.8 1.7 -4.1 5.2 -4.9 5.4 -4.9 1.3z"/>
  <path fill="url(#lg2)" d="M450 260.6 c0 -0.7 -0.9 -1.6 -2 -1.9 -1.5 -0.4 -2 -1.4 -2 -4.1 0 -2.5 0.5 -3.6 1.4 -3.6 0.8 0 1.8 -0.9 2.1 -2 0.5 -1.5 1.5 -2 4.1 -2 1.9 0 3.4 0.4 3.4 0.8 0 0.5 1.2 1.5 2.8 2.3 5.1 2.6 5.2 3.4 1.1 8.2 -2.6 3.1 -3.8 3.7 -7 3.7 -2.7 0 -3.9 -0.4 -3.9 -1.4z"/>
  <path fill="url(#lg1)" d="M505 257.9 c0 -0.5 -0.5 -0.7 -1.2 -0.3 -0.7 0.4 -0.8 0.3 -0.4 -0.5 0.4 -0.6 0 -1.4 -0.8 -1.7 -0.9 -0.3 -1.6 -1.1 -1.6 -1.8 0 -0.6 -1.4 -2.5 -3 -4.3 -1.7 -1.8 -3 -3.6 -3 -4.1 0 -0.4 -0.8 -1.7 -1.8 -2.8 -1 -1 -2.8 -3.5 -4.2 -5.4 -1.3 -1.9 -3.1 -4.2 -4 -5 -0.9 -0.8 -2.7 -3.1 -4 -5 -1.4 -1.9 -3.4 -4.5 -4.7 -5.7 -1.2 -1.3 -3.4 -3.9 -5 -6 -3.7 -4.9 -25.4 -26.6 -32.3 -32.3 -8.4 -6.9 -11.2 -9.3 -13.9 -11.9 -1.3 -1.3 -3.8 -2.9 -5.5 -3.7 -1.7 -0.7 -2.7 -1.3 -2.2 -1.4 1.3 0 -2.5 -4 -3.9 -4 -0.7 0 -2 -0.9 -3 -2 -1 -1.1 -2.4 -2 -3 -2 -0.7 0 -1.8 -0.7 -2.5 -1.5 -1 -1.2 -1 -1.5 0.1 -1.5 0.8 0 0.6 -0.5 -0.6 -1.2 -1.1 -0.7 -2.6 -1.8 -3.3 -2.5 -0.7 -0.7 -1.9 -1.4 -2.5 -1.4 -1.2 -0.1 -2.2 -0.3 -4.2 -0.9 -0.5 -0.1 -2 -0.1 -3.2 0 -1.6 0.1 -2.3 -0.4 -2.3 -1.6 0 -1.4 0.3 -1.4 1.5 -0.4 1.7 1.4 3.1 0.8 2 -0.9 -0.9 -1.5 -4.2 -1.4 -4.8 0.2 -0.3 0.9 -0.8 0.9 -1.8 0.1 -0.8 -0.6 -3 -1.7 -4.9 -2.4 -1.9 -0.7 -6.2 -2.4 -9.5 -3.7 -13.2 -5.4 -15.2 -6.2 -20 -7.7 -5.2 -1.5 -8.9 -2.4 -14 -3.3 -1.6 -0.3 -3.4 -0.9 -4 -1.3 -0.5 -0.5 -2.8 -0.9 -5 -1.1 -2.2 -0.1 -4.4 -0.6 -5 -1 -3.1 -2.2 -51.3 -3 -66 -1 -15.2 2 -17 2.3 -17.9 3.2 -0.6 0.5 -2.5 0.9 -4.2 0.9 -1.8 0 -3.5 0.4 -3.8 0.9 -0.3 0.5 -2 1.1 -3.8 1.4 -5.3 0.8 -9.2 1.8 -10.3 2.6 -0.5 0.4 -2.8 1.3 -5 2 -2.2 0.7 -4.9 1.6 -6 2 -2.7 1.1 -28.4 13.8 -31.5 15.5 -1.4 0.8 -3.2 1.7 -4 2 -0.8 0.4 -2.9 1.5 -4.7 2.6 -2.7 1.6 -3.1 1.7 -2.6 0.3 0.4 -1.1 0.2 -1.4 -0.5 -0.9 -0.7 0.4 -1.2 1.6 -1.2 2.7 0 2.5 -3 2.5 -3.7 -0.1 -0.7 -2.5 -1.8 -2.5 -5 0 -3.1 2.4 -5.8 2.7 -4.9 0.5 0.6 -1.7 -0.9 -2.1 -1.9 -0.4 -0.9 1.4 -4.5 -2.4 -4.5 -4.8 0 -1.5 -0.2 -1.6 -1 -0.3 -1.5 2.3 -1.2 1 1 -4.9 1.5 -3.9 1.7 -5.2 0.8 -4.8 -1.5 0.5 -1.9 -3.1 -0.6 -4.8 6.2 -7.9 8.5 -10.7 12.1 -14.5 2.4 -2.5 5.8 -6.6 7.7 -9.2 1.8 -2.7 3.7 -4.8 4.2 -4.8 0.5 0 1.1 -0.7 1.5 -1.6 0.3 -0.9 2.1 -3.1 4 -5 1.8 -1.8 3.3 -3.8 3.3 -4.3 0 -0.5 1 -1.1 2.2 -1.3 1.7 -0.2 2.3 -1 2.5 -3.3 0.1 -1.7 1.2 -3.8 2.5 -4.8 1.3 -1 3.5 -3 5 -4.3 1.5 -1.3 3 -2.4 3.4 -2.4 0.9 0 9.9 -6.3 10.2 -7.2 0.2 -0.4 0.8 -0.8 1.4 -0.8 0.5 0 2.9 -1.4 5.4 -3.1 2.4 -1.6 5.3 -3.1 6.4 -3.2 1.1 -0.1 2 -0.4 2 -0.8 0 -0.6 15.1 -8.2 19.5 -9.9 3.1 -1.2 7.8 -3.1 9.7 -4.1 1 -0.5 2.7 -0.9 3.7 -0.9 1.1 0 2.3 -0.4 2.6 -1 0.3 -0.5 1.7 -1 3.1 -1 1.3 0 3.2 -0.4 4.2 -0.9 2.8 -1.4 8.7 -3.1 10.8 -3.1 1.1 0 2.4 -0.4 3 -0.9 0.5 -0.5 2.9 -1.2 5.4 -1.5 2.5 -0.3 7.7 -1 11.5 -1.6 22.8 -3.4 51.4 -4.4 64 -2.2 3.9 0.7 9.7 1.5 13 1.8 3.3 0.3 6.9 0.9 8 1.4 1.1 0.4 4.9 1.4 8.5 2.1 3.6 0.6 8.2 2 10.3 3.1 2 1 3.7 1.5 3.7 1.1 0 -0.4 0.5 -0.2 1.2 0.5 0.7 0.7 2 1.2 3 1.2 0.9 0 2.1 0.7 2.6 1.6 0.6 1.1 1.7 1.5 3 1.2 1.2 -0.3 2.6 0 3.2 0.7 0.6 0.7 2.3 1.6 3.8 2 1.5 0.3 4.4 1.7 6.5 3.1 2 1.3 3.7 2.1 3.7 1.7 0 -0.3 1.1 0.4 2.5 1.7 1.4 1.3 2.5 2 2.5 1.5 0 -0.5 1.2 0.2 2.6 1.6 1.5 1.4 2.3 3.1 2.1 4.1 -0.6 2 1.9 2.5 2.5 0.6 0.3 -0.9 1.7 -0.3 4.1 1.7 1.9 1.7 3.6 3.3 3.6 3.8 0.2 1.4 -2.2 0.7 -3.5 -1 -0.7 -1 -1.5 -1.5 -1.9 -1.2 -0.9 0.9 5.5 7 6.6 6.3 0.5 -0.3 0.9 -0.2 0.8 0.3 -0.4 2.1 0.2 3.3 1.8 3.3 0.9 0 1.3 0.3 1 0.6 -0.9 0.9 3.3 4.5 4.4 3.8 1.1 -0.7 -2.1 -5.2 -4.1 -5.7 -1.1 -0.4 -1 -0.5 0.3 -0.6 1 0 2.9 1 4.2 2.3 1.3 1.3 3 2.6 3.7 2.9 1.1 0.4 1.1 0.8 0 2.6 -1.4 2.4 -0.8 4.1 1.4 4.1 1.2 0 1.2 -0.4 0.4 -2 -0.6 -1.1 -0.7 -2 -0.3 -2 2.5 0.1 5.3 5 2.9 5 -1.1 0 -1.2 0.5 -0.3 2.5 0.7 1.4 2 2.5 3 2.5 1 0 1.6 0.4 1.2 0.9 -0.3 0.5 0.6 1.8 2 2.9 1.4 1.1 2.5 2.5 2.5 3.1 0 0.6 1 1.1 2.2 1.1 1.2 0 1.8 0.3 1.5 0.7 -0.4 0.3 0.3 1.1 1.6 1.7 1.2 0.7 2.8 2.5 3.6 4.1 0.8 1.7 1.7 3.2 2 3.5 0.8 0.7 2.9 4 4.3 7 0.7 1.4 2.2 3.9 3.4 5.5 1.2 1.7 2.5 4.4 2.9 6.2 0.3 1.7 1.3 3.7 2.1 4.4 0.8 0.6 1.4 1.8 1.4 2.5 0 0.8 0.5 2.4 1.2 3.7 2.4 4.8 2.8 5.7 2.8 7.6 0 1.1 0.5 2.3 1 2.6 0.6 0.3 1 1.5 1 2.6 0 1 0.4 2.7 0.9 3.7 0.5 0.9 1.4 3.7 2.1 6.2 0.6 2.5 1.6 5.9 2.1 7.6 0.5 1.7 0.9 4.2 0.9 5.7 0 1.4 0.5 2.9 1 3.2 0.6 0.3 1 2.8 1 5.4 0 2.6 0.4 5.1 0.9 5.7 1.1 1.1 1.9 12.6 2.6 38.9 0.4 11.8 0.2 18.5 -0.4 17.6 -0.7 -1.1 -1.3 -1.1 -3.2 0.3 -2.7 1.9 -3.9 2 -3.9 0.5z"/>
  <path fill="url(#lg2)" d="M436.5 243.6 c-2.2 -0.7 -4.1 -1.9 -4.2 -2.7 -0.2 -0.8 1 -2.9 2.7 -4.7 l2.9 -3.4 4.5 3.9 c5.7 4.8 6.3 8.4 1.4 8.2 -1.8 -0.1 -5.1 -0.7 -7.3 -1.3z"/>
 </g>
 <g fill="#111b2c">
  <path fill="url(#lg0)" d="M266.3 482.3 c-3 -0.4 -3.3 -0.7 -3.3 -3.9 0 -2.2 0.5 -3.4 1.4 -3.4 0.8 0 1.7 -1.5 2 -3.5 0.6 -3.2 1 -3.5 4.1 -3.5 1.8 0 3.6 0.6 3.8 1.3 0.3 0.7 0.6 0.5 0.6 -0.5 0.1 -1 0.6 -1.8 1.1 -1.8 0.6 0 1 -0.7 1 -1.5 0 -0.8 0.8 -1.5 1.8 -1.5 1 0 2.7 -0.7 3.8 -1.5 1 -0.8 2.7 -1.5 3.7 -1.5 0.9 0 1.7 -0.4 1.7 -1 0 -0.5 0.7 -1 1.5 -1 0.8 0 1.5 -0.9 1.5 -2 0 -1.6 0.7 -2 3 -2 1.7 0 3 -0.4 3 -1 0 -0.5 -0.4 -1 -1 -1 -0.5 0 -1 -1.5 -1 -3.4 0 -2.6 0.5 -3.6 2 -4.1 1.1 -0.3 2 -1.1 2 -1.6 0 -0.5 0.9 -0.9 2 -0.9 1.3 0 2 -0.7 2 -2 0 -1.5 0.7 -2 2.6 -2 3.4 0 6.3 -2.8 4.3 -4.1 -0.8 -0.5 -2.2 -0.9 -3.1 -0.9 -1.4 0 -1.8 -0.8 -1.8 -3.5 0 -1.9 0.5 -3.5 1 -3.5 0.6 0 1 -0.4 1 -1 0 -0.5 -0.9 -1 -2 -1 -1.6 0 -2 -0.7 -2 -3.4 0 -1.9 0.5 -3.8 1 -4.1 0.6 -0.3 1 -2.2 1 -4.1 0 -2.7 0.4 -3.4 2 -3.4 1.7 0 2 -0.7 2 -4 0 -3.3 0.3 -4 2 -4 1.1 0 2.7 -1.2 3.6 -2.6 1.5 -2.2 2.2 -2.5 4.8 -1.8 3.9 0.9 56.3 0.9 63.4 -0.1 3.5 -0.5 5.2 -0.3 5.2 0.4 0 1.3 -3.5 2.2 -7.5 1.9 -2.6 -0.3 -3 0 -2.7 2 0.3 1.7 -0.2 2.2 -1.7 2.2 -1.2 0 -2.1 0.6 -2.2 1.3 0 0.6 -0.4 0.3 -0.9 -0.8 -0.5 -1.1 -0.9 -1.5 -0.9 -0.9 -0.1 0.6 -1.6 1.5 -3.3 1.9 -2.9 0.7 -3 0.9 -1 1.2 2 0.4 2.1 0.7 1 2 -1.2 1.5 -1.1 1.5 1 0.4 2.2 -1.2 2.3 -1.1 1.7 0.8 -0.4 1.2 -0.2 2.1 0.4 2.1 1.1 0 1.5 -1.3 1.2 -3.7 -0.1 -0.7 0.3 -1.3 0.9 -1.3 0.5 0 1.1 0.8 1.2 1.8 0 0.9 0.2 2.2 0.2 2.9 0.1 0.6 0.5 1.5 1 2 0.5 0.4 0.6 0.3 0.2 -0.4 -0.4 -0.7 -0.2 -1.3 0.4 -1.3 0.6 0 0.9 -0.4 0.6 -0.8 -0.3 -0.4 1.1 -0.9 3 -0.9 1.8 -0.1 3.1 0.3 2.8 0.8 -0.3 0.5 -1.2 0.9 -2 0.9 -0.8 0 -1.2 0.5 -0.9 1.1 0.4 0.6 1.3 0.8 2 0.5 0.8 -0.3 1.7 0.4 2 1.5 0.4 1.2 1.2 1.8 2.1 1.5 0.8 -0.3 1.4 0.1 1.4 1 0 1.1 0.6 1.3 2.1 0.9 2 -0.7 2 -0.6 0.5 2.3 -0.8 1.6 -1.2 3.3 -0.8 3.7 0.4 0.3 -0.9 2 -2.8 3.6 -3.4 2.8 -3.5 2.8 -1 3 2.8 0.1 2.3 0.3 -3.8 1.9 -3.7 1 -4.1 1.3 -3.2 3 1.3 2.5 1.3 3 -0.5 3 -1.4 0 -5.5 3.4 -5.5 4.5 0 0.3 0.9 0.1 2 -0.5 1.7 -0.9 2.1 -0.8 2.6 0.7 0.3 1 1 2.6 1.5 3.6 0.9 1.7 0.8 1.7 -1.8 0.3 -2.2 -1.1 -3.2 -1.1 -4.4 -0.3 -0.9 0.7 -1.4 1.7 -1.2 2.4 0.3 0.7 -0.5 1.8 -1.6 2.5 -1.2 0.7 -2.1 1.8 -2.1 2.5 0 1.2 -1.8 1.7 -4.6 1.4 -0.7 -0.1 -1.4 0.5 -1.8 1.4 -0.3 0.8 -0.1 1.5 0.4 1.5 0.6 0 1 -0.4 1 -0.8 0 -0.5 0.7 -0.9 1.5 -0.9 2.2 0 1.9 0.5 -1.7 2.3 -2.8 1.5 -3.2 1.5 -4 0 -1.4 -2.5 -2.8 -1.9 -2.8 1.2 -0.1 2.3 -0.2 2.4 -1.1 1 -1.1 -2 -2.9 -2.4 -2.9 -0.7 0 0.5 0.5 0.7 1 0.4 0.6 -0.3 1 -0.1 1 0.6 0 0.6 -0.8 0.9 -2 0.6 -1.1 -0.3 -2 -0.2 -2 0.3 0 0.8 -4.3 2.8 -7.5 3.4 -6.2 1.2 -7.7 1.9 -6.3 2.8 0.9 0.7 0.4 0.8 -1.7 0.5 -3.5 -0.5 -11.6 2.5 -9.7 3.7 0.7 0.4 2.5 0.1 4.1 -0.7 2.7 -1.3 3 -1.3 3.4 0.3 0.7 2.6 -1.1 4 -4.9 4 -1.8 0 -3.6 0.5 -3.9 1 -0.3 0.6 -2.5 1 -4.9 1 -2.3 0 -4.6 0.4 -5.2 0.9 -0.5 0.5 -3.6 1.2 -6.9 1.6 -7.7 0.8 -36 1.4 -40.2 0.8z"/>
  <path d="M218.8 477.6 c-2.6 -2 -2.2 -2.6 1.7 -2.6 2.8 0 3.5 0.4 3.5 2 0 2.3 -2.6 2.6 -5.2 0.6z"/>
  <path d="M191.8 469.6 c-2.7 -2 -2.2 -2.6 2.2 -2.6 3.3 0 4 0.3 4 2 0 2.4 -3.5 2.7 -6.2 0.6z"/>
  <path fill="url(#lg0)" d="M378.9 441.8 c-2.4 -1.9 -2.4 -2 -0.2 -1.5 1.3 0.3 2.6 0.1 2.9 -0.4 0.3 -0.5 1 -0.7 1.5 -0.3 0.6 0.3 1.6 -0.2 2.4 -1.2 0.7 -1.1 1.7 -1.6 2.1 -1.1 0.4 0.4 0.2 0.7 -0.4 0.7 -0.7 0 -1.2 0.6 -1.2 1.4 0 0.7 -1 2.1 -2.3 2.9 -2.1 1.4 -2.5 1.3 -4.8 -0.5z"/>
  <path d="M381.4 436.5 c0.1 -0.8 0.4 -1.6 0.7 -1.7 0.2 -0.2 0.3 -0.1 0.2 0.1 -0.2 0.2 0.2 1 0.8 1.8 0.9 1 0.8 1.3 -0.4 1.3 -0.8 0 -1.4 -0.7 -1.3 -1.5z"/>
  <path d="M393 421.1 c0 -1.7 1.8 -2.1 2.4 -0.6 0.3 0.9 0 1.5 -0.9 1.5 -0.8 0 -1.5 -0.4 -1.5 -0.9z"/>
  <path d="M279 391 c0 -2.3 2.6 -2.6 5.3 -0.6 2.5 2 2.1 2.6 -1.8 2.6 -2.8 0 -3.5 -0.4 -3.5 -2z"/>
  <path fill="url(#lg2)" d="M383 329.3 c0 -1.5 0.5 -4.2 1.2 -6 1 -2.8 1 -3.6 -0.1 -4.2 -0.9 -0.6 -1.2 -2.3 -0.9 -5 0.3 -3.8 0.2 -4.2 -2.8 -5.1 -2.6 -0.9 -3.3 -1.8 -4.1 -5.3 -0.9 -3.4 -1.1 -3.7 -1.2 -1.4 -0.1 2.4 -0.5 2.7 -3.6 2.7 -1.9 0 -3.5 -0.3 -3.5 -0.7 0.1 -0.5 2.6 -2.6 5.7 -4.8 6.2 -4.4 27 -24.4 35.7 -34.4 3.4 -3.8 5.6 -7.3 5.6 -8.7 0 -1.3 1.7 -4.2 3.8 -6.5 2 -2.3 4.7 -5.3 6 -6.7 1.2 -1.4 2.2 -3.2 2.2 -4.1 0 -1.3 0.2 -1.3 0.9 -0.2 0.7 1.1 1.4 1.1 3.9 -0.2 2.8 -1.3 3.1 -1.3 3.7 0.1 0.3 0.8 0.8 1.2 1.2 0.9 0.3 -0.4 1.4 -0.2 2.5 0.4 2.4 1.3 3.5 0.4 1.9 -1.5 -0.7 -0.8 -0.8 -1.6 -0.4 -1.9 1 -0.6 15.6 10.1 17.2 12.6 1.6 2.5 0.5 3.4 -2 1.8 -1.2 -0.7 -2.4 -1 -2.7 -0.7 -0.3 0.3 -0.2 0.6 0.2 0.6 0.4 0 0.1 0.7 -0.8 1.5 -0.8 0.8 -2 1.5 -2.6 1.5 -0.6 0 -0.8 0.4 -0.5 1 0.4 0.6 1.7 0.4 3.5 -0.5 3.8 -2 4.1 -1.9 3.6 0.8 -0.4 2.1 -0.1 2.3 2 1.9 2 -0.4 2.3 -0.9 1.9 -3.4 -0.5 -2.6 -0.4 -2.8 1.4 -1.8 1.9 0.9 1.9 3.5 0.2 5 -0.4 0.3 -1.9 2.1 -3.5 4 -1.6 1.9 -5.6 6.6 -9 10.4 -3.3 3.8 -6.8 7.8 -7.6 9 -0.8 1.2 -3.9 4.7 -7 7.9 -3 3.2 -5.7 6.3 -5.9 6.9 -0.5 1.5 -23.8 24.7 -28.4 28.3 -10.1 7.9 -11.1 8.5 -14.3 8.5 -3 0 -3.4 -0.3 -3.4 -2.7z"/>
  <path d="M181.3 273.3 c-0.4 -1 -1.1 -2.2 -1.7 -2.6 -0.6 -0.4 0.5 -0.6 2.4 -0.5 2.7 0.2 3.5 0.7 3.5 2.3 0 2.6 -3.3 3.2 -4.2 0.8z"/>
  <path d="M417 114 c0 -0.6 -0.4 -0.8 -1 -0.5 -0.5 0.3 -1 0.2 -1 -0.3 0 -0.8 2.2 -2.2 3.6 -2.2 0.8 0 0.4 2.9 -0.6 3.5 -0.5 0.3 -1 0.1 -1 -0.5z"/>
  <path d="M411.7 110.3 c-0.2 -0.5 0.5 -1.8 1.7 -3.1 2.1 -2.1 2.2 -2.1 2.3 -0.2 0.2 2 -3.2 4.7 -4 3.3z"/>
  <path d="M394.3 108.7 c0.5 -1.4 0 -1.7 -2.4 -1.7 -1.7 0 -2.8 0.4 -2.5 0.9 0.7 1.1 -2 0.8 -3.1 -0.3 -0.4 -0.4 -0.3 -0.6 0.4 -0.4 0.6 0.2 1.9 -0.6 2.8 -1.7 0.9 -1.1 1.3 -1.4 0.9 -0.6 -0.4 0.8 -0.3 1.2 0.2 0.9 0.5 -0.3 2.9 0.3 5.4 1.3 2.5 1 3.6 1.8 2.5 1.7 -1.1 -0.1 -2.6 0.2 -3.4 0.6 -1.1 0.7 -1.3 0.5 -0.8 -0.7z"/>
  <path fill="url(#lg1)" d="M379.6 105.5 c0.3 -0.8 1.1 -1.2 1.7 -0.8 0.7 0.4 0.8 0 0.4 -1.2 -0.4 -0.9 -0.2 -2.5 0.5 -3.3 0.8 -1 0.9 -1.3 0.1 -0.9 -0.6 0.4 -1.4 0.1 -1.6 -0.5 -0.3 -0.8 -0.6 -0.6 -0.6 0.5 -0.1 2.3 -3.8 2.2 -5.1 -0.2 -0.7 -1.3 -1.6 -1.7 -3.1 -1.4 -1.9 0.5 -2.1 0.3 -1.6 -1.9 0.4 -1.4 0.4 -2.8 0 -3.2 -0.4 -0.3 -0.8 -1.6 -1 -2.8 -0.2 -1.2 -0.7 -2.5 -1.1 -2.8 -0.4 -0.3 -0.8 -1.5 -1 -2.7 -0.2 -1.7 0.2 -2.3 1.7 -2.3 1.1 0 2.2 -0.8 2.4 -1.7 0.4 -1.6 0.5 -1.6 0.6 0.1 0.1 1.5 0.4 1.6 1.6 0.6 2 -1.6 1.9 -0.6 -0.1 1.4 -1.4 1.5 -1.3 1.6 0.8 1.7 1.3 0.1 2.9 0.1 3.6 0 0.6 -0.1 1.2 0.3 1.2 0.9 0 0.5 -0.7 1 -1.5 1 -0.8 0 -1.5 0.9 -1.5 1.9 0 1.1 -0.5 2.1 -1.2 2.3 -0.7 0.3 -0.5 0.7 0.6 1.1 1.3 0.5 1.9 0.2 2.3 -1.2 0.4 -1.6 2.9 -3 5.6 -3.1 0.4 0 0.6 1.2 0.6 2.8 -0.3 4.3 0 5.2 1.6 5.2 1.8 0 1.9 -1.2 0.3 -2.8 -0.9 -0.9 -0.9 -1.2 0.3 -1.2 1.8 0 2.3 4.1 0.6 5.2 -0.9 0.6 -0.8 0.8 0.2 0.8 1.1 0 1.1 0.3 0 1.7 -1.3 1.5 -1.1 1.6 1.4 0.9 1.6 -0.4 2.6 -0.3 2.3 0.2 -0.3 0.5 0.1 1.8 0.9 2.8 0.9 1.2 1.5 1.4 1.6 0.7 0.1 -0.7 0.2 -1.7 0.3 -2.3 0.1 -1.4 2 -1.4 2.4 -0.1 0.2 0.6 -0.1 1.1 -0.7 1.1 -0.6 0 -0.8 0.6 -0.5 1.4 0.4 1 0 1.3 -1.3 1.1 -1 -0.2 -1.9 -0.4 -2 -0.5 -0.2 -0.2 -1.3 -0.3 -2.5 -0.4 -1.3 -0.1 -2.2 -0.6 -2.1 -1.1 0 -0.6 -0.6 -1.6 -1.4 -2.4 -1.4 -1.3 -1.5 -1.2 -1.1 1.2 0.3 1.4 0.1 2.4 -0.3 2.1 -1.2 -0.7 -1.1 0.9 0.1 2.4 0.7 0.9 0.7 0.9 -0.2 0.2 -0.7 -0.6 -1.8 -0.6 -2.9 0.1 -1.5 0.7 -1.7 0.6 -1.3 -0.6z m-1 -7.2 c-0.1 -2 -1.6 -3.4 -2.8 -2.7 -0.8 0.5 1.2 4.4 2.3 4.4 0.4 0 0.6 -0.8 0.5 -1.7z m-4.6 -2.8 c0.6 -0.8 1 -2 0.7 -2.7 -0.3 -0.8 -0.6 -0.5 -0.7 0.7 -0.2 1.4 -0.4 1.1 -0.9 -1 -0.4 -1.6 -0.3 -3.8 0.2 -4.8 1.2 -2.7 0 -3.4 -2.1 -1.2 -0.9 1 -1.2 1.5 -0.6 1.2 0.7 -0.4 1.1 1 1 4.3 -0.2 5.2 0.3 6 2.4 3.5z m8.6 -3.3 c-0.1 -0.7 -0.8 -1.8 -1.6 -2.5 -0.9 -0.8 -1.1 -0.8 -0.6 0 0.3 0.6 -0.1 1.6 -1 2.1 -1.9 1.1 -2 2.2 -0.3 3.2 1.4 0.9 3.7 -0.9 3.5 -2.8z"/>
  <path d="M407 105.4 c0 -0.8 0.4 -1.3 0.9 -0.9 0.5 0.3 1.7 -0.2 2.6 -1.1 0.9 -0.9 1.8 -1.4 2.1 -1.1 0.7 0.7 -3.3 4.7 -4.6 4.7 -0.5 0 -1 -0.7 -1 -1.6z"/>
  <path d="M401.1 103.9 c-0.1 -1.9 1.8 -3.6 3.7 -3.3 0.6 0.1 1.7 0.2 2.2 0.3 0.7 0.1 0.6 0.7 -0.2 1.5 -0.8 0.9 -1.7 1.1 -2.2 0.5 -1.5 -1.4 -2.4 -1.1 -2.9 0.9 -0.4 1.4 -0.5 1.4 -0.6 0.1z"/>
  <path d="M374 103 c0.8 -0.5 1 -1 0.4 -1 -0.6 0 -1.1 -0.7 -1.1 -1.5 0 -1.2 0.3 -1.2 1.7 0.3 2 1.9 1.7 3.2 -0.8 3.2 -1.5 0 -1.5 -0.2 -0.2 -1z"/>
  <path d="M397 101.6 c0 -1.7 1.6 -3 2.3 -1.9 0.3 0.5 -0.1 1.4 -0.9 2.1 -1.2 1 -1.4 1 -1.4 -0.2z"/>
  <path d="M393 96.3 c0 -0.7 0.7 -1.3 1.5 -1.3 0.8 0 1.5 0.6 1.5 1.3 0 0.8 -0.7 1.4 -1.5 1.4 -0.8 0 -1.5 -0.6 -1.5 -1.4z"/>
  <path fill="url(#lg1)" d="M397.6 95.8 c-0.9 -3.6 -0.7 -6 0.5 -5.6 1.2 0.4 2 7.8 0.9 7.8 -0.4 0 -1 -1 -1.4 -2.2z"/>
  <path d="M401 96.3 c0 -0.5 0.7 -1.7 1.5 -2.7 1.4 -1.9 1.5 -1.9 1.3 0.7 -0.1 1.5 -0.8 2.7 -1.5 2.7 -0.7 0 -1.3 -0.3 -1.3 -0.7z"/>
  <path fill="url(#lg1)" d="M364.3 91.9 c1.1 -1.7 1.4 -1.6 2 0.7 0.1 0.4 -0.6 0.8 -1.5 1 -1.4 0.2 -1.5 -0.1 -0.5 -1.7z"/>
  <path d="M389.3 92.5 c0 -0.6 0.6 -1.2 1.4 -1.2 0.7 0 1.3 0.6 1.3 1.2 0 0.6 -0.6 1.2 -1.3 1.2 -0.8 0 -1.4 -0.6 -1.4 -1.2z"/>
  <path fill="url(#lg1)" d="M363 90.3 c0.1 -1.4 3 -4.8 3 -3.4 0 0.7 -0.7 1.9 -1.5 2.7 -0.8 0.9 -1.5 1.2 -1.5 0.7z"/>
  <path d="M393 89 c0 -0.5 0.7 -1 1.5 -1 0.8 0 1.5 0.5 1.5 1 0 0.6 -0.7 1 -1.5 1 -0.8 0 -1.5 -0.4 -1.5 -1z"/>
  <path fill="url(#lg1)" d="M361 85.8 c0 -1.4 -4.8 -1.7 -6.7 -0.5 -1.3 0.8 -1.4 0.7 -1.7 -1.4 0 -0.7 -0.8 -1.5 -1.6 -1.8 -1.9 -0.7 -2.1 -5.9 -0.3 -6.5 1.5 -0.6 1.7 0.3 0.4 2.4 -1.7 2.5 0 3.2 2.4 1 1.9 -1.8 2.7 -2 4.4 -1.1 1.2 0.7 2.1 1.7 2.1 2.3 0 0.7 0.6 0.3 1.4 -0.7 0.8 -1.1 1.2 -2.3 1 -2.7 -0.9 -1.5 1.4 -1.7 2.7 -0.2 1 1.3 0.9 1.6 -0.9 2.1 -1.2 0.3 -2.3 0.9 -2.3 1.4 -0.1 0.5 -0.2 1.5 -0.3 2.2 -0.1 0.6 0.2 2 0.6 3 0.5 1 0.5 1.7 -0.2 1.7 -0.5 0 -1 -0.6 -1 -1.2z m-1.2 -3.4 c0.4 -0.4 -0.2 -0.4 -1.3 0 -1.6 0.6 -1.8 0.5 -0.7 -0.5 1.8 -1.9 1.5 -2.5 -1.5 -2.4 -1.4 0 -2.8 0.6 -3.1 1.3 -0.2 0.6 0.1 1.2 0.7 1.2 0.6 0 1.1 -0.5 1.1 -1.2 0 -0.6 0.3 -0.8 0.6 -0.5 0.4 0.4 0.2 1.3 -0.5 2 -0.9 1.2 -0.6 1.4 1.5 1.1 1.4 -0.1 2.9 -0.6 3.2 -1z"/>
  <path d="M385.1 84.7 c-0.1 -2.1 2.1 -1.8 2.7 0.4 0.3 1.2 0.2 1.2 -0.6 0 -0.8 -1.1 -1 -1.1 -1.5 0 -0.4 1 -0.6 0.8 -0.6 -0.4z"/>
 </g>
 <g fill="#13243e">
  <path fill="url(#lg0)" d="M241.5 482.1 c-0.6 -0.5 -3 -1.2 -5.5 -1.5 -2.5 -0.3 -7 -1 -10 -1.5 -3 -0.6 -7.2 -1.3 -9.3 -1.7 -2 -0.3 -4 -1 -4.3 -1.5 -0.3 -0.5 -2 -0.9 -3.9 -0.9 -1.9 0 -3.7 -0.4 -4 -1 -0.3 -0.5 -1.7 -1 -3 -1 -1.3 0 -2.6 -0.4 -2.9 -0.9 -0.3 -0.4 -2.6 -1.4 -5.1 -2.1 -2.5 -0.7 -4.8 -1.7 -5.1 -2.1 -0.3 -0.5 -1.3 -0.9 -2.4 -0.9 -1.8 0 -12.6 -5.3 -14.4 -7.1 -0.6 -0.5 -1.6 -0.9 -2.3 -0.9 -0.8 0 -5.5 -2.8 -10.5 -6.1 -8.6 -5.8 -10.6 -7.4 -18.2 -14.1 l-3.1 -2.7 3.8 -0.1 c2.4 0 4 0.5 4.3 1.5 0.4 0.8 1 1.5 1.5 1.5 0.6 0 2.3 1 3.9 2.2 2.2 1.6 4.2 2.1 7.5 1.9 3.5 -0.1 4.5 0.2 4.5 1.4 0 1.7 3.5 2.1 4.5 0.5 0.3 -0.5 1.7 -1 3 -1 1.3 0 2.7 -0.4 3 -1 0.3 -0.5 1.7 -1 3.1 -1 1.5 0 2.4 -0.6 2.4 -1.5 0 -1 1 -1.5 3 -1.5 2.7 0 3 -0.3 3 -3 0 -2.3 0.4 -3 2 -3 1.6 0 2 -0.7 2 -3 0 -2.5 0.4 -3 2.5 -3 1.4 0 2.5 -0.4 2.5 -1 0 -0.5 0.7 -1 1.5 -1 0.8 0 1.5 -0.4 1.5 -1 0 -0.5 0.9 -1 2 -1 1.3 0 2 -0.7 2 -2 0 -1.3 0.7 -2 2 -2 1.3 0 2 -0.7 2 -2 0 -1.3 0.7 -2 2 -2 1.1 0 2 -0.7 2 -1.5 0 -0.8 0.9 -1.5 2 -1.5 1.1 0 2 -0.7 2 -1.5 0 -0.9 0.7 -1.8 1.5 -2.1 0.8 -0.4 1.5 -1.5 1.5 -2.5 0 -1.5 0.7 -1.9 3.1 -1.9 3.3 0 5.9 -1.9 5.9 -4.4 0 -0.9 0.9 -1.6 2.1 -1.6 1.8 0 2 -0.5 1.7 -4.2 -0.2 -3.6 -0.7 -4.4 -2.5 -4.6 -1.7 -0.3 -2.3 -1 -2.3 -2.8 0 -1.3 -0.4 -2.4 -0.9 -2.4 -0.5 0 -1.2 -1.3 -1.6 -3 -0.5 -2.1 -1.3 -3 -2.6 -3 -1.2 0 -1.9 -0.7 -1.9 -2 0 -1.1 -0.6 -2 -1.3 -2 -2.1 0 -4.8 -14.5 -3.1 -16.3 0.4 -0.4 1.9 0.2 3.4 1.3 1.6 1.1 3.3 2 3.9 2 0.6 0 1.1 0.3 1.1 0.8 0 0.4 1 1.2 2.3 1.8 4.4 2.2 11.2 5.9 11.7 6.4 0.3 0.3 4.6 2.5 9.5 4.9 5 2.4 10.7 5.2 12.8 6.2 2.2 1.1 4.5 1.9 5.3 1.9 0.8 0 2.2 0.4 3.2 0.9 0.9 0.5 3.1 1.4 4.7 2.1 1.7 0.7 3.8 1.6 4.7 2.1 1 0.5 2.5 0.9 3.5 0.9 1.6 0 6.8 1.5 10.8 3.1 1.1 0.4 3.6 1 5.5 1.3 7.1 1 10.6 1.8 12.5 2.6 1.1 0.5 4.5 1.1 7.5 1.4 3 0.3 6.1 0.6 6.8 0.7 1.4 0.3 1.6 1.8 0.2 2 -0.5 0.1 -1.5 0.2 -2 0.3 -0.6 0 -1.8 1.3 -2.8 2.7 -0.9 1.5 -2.5 2.5 -3.5 2.3 -0.9 -0.1 -1.5 0.2 -1.1 0.7 0.3 0.5 0.9 0.7 1.4 0.4 0.5 -0.3 1.1 -0.1 1.4 0.4 0.4 0.5 -0.3 1.3 -1.5 1.6 -1.5 0.5 -1.8 1 -1 1.8 0.6 0.6 1.1 1.8 1 2.7 0 1 -0.3 0.9 -0.9 -0.5 -0.7 -1.7 -0.9 -1.6 -0.9 1 -0.1 2.3 -0.4 2.7 -1.1 1.5 -0.6 -0.9 -1 -1 -1 -0.3 0 0.6 0.4 1.4 0.9 1.7 1.1 0.7 0.9 2.5 -0.3 4.5 -0.6 1 -0.5 1.2 0.2 0.7 0.8 -0.5 1.2 0 1.2 1.3 0 1.2 0.7 2.1 1.6 2.1 0.9 0 1.2 -0.5 0.8 -1.2 -0.4 -0.7 -0.3 -0.8 0.4 -0.4 0.6 0.4 1 2.2 0.8 4.2 -0.2 2.3 0.3 3.8 1.3 4.4 1.4 0.8 1.4 0.9 -0.1 1 -1.8 0 -3.4 3.9 -2.5 6.2 0.3 0.7 0.6 0.1 0.6 -1.4 0.1 -1.5 0.6 -3 1.3 -3.4 0.8 -0.5 0.9 -0.2 0.5 1 -0.4 1 -0.7 2.7 -0.7 3.8 0 1.5 -0.5 1.9 -2 1.5 -1 -0.3 -1.9 -0.2 -1.8 0.2 0.3 2.6 -0.4 4.8 -1.7 4.8 -0.8 0 -1.2 -0.4 -0.9 -0.8 0.2 -0.4 0 -1 -0.6 -1.4 -0.5 -0.3 -1 0.1 -1 1 0 0.9 -0.4 1.3 -1 1 -0.7 -0.4 -0.7 0.3 0 1.9 0.8 2.1 0.6 2.6 -0.6 2.6 -0.8 0 -1.2 -0.5 -0.8 -1.1 0.4 -0.7 -0.1 -1 -1.1 -0.7 -1 0.1 -2 1 -2.2 1.8 -0.3 1 -0.2 1.1 0.4 0.4 0.6 -0.9 1.1 -0.8 2.1 0.2 1.8 2 1.8 1.9 0.3 3.8 -1.2 1.4 -1.2 1.6 0.2 1.1 0.8 -0.4 1.8 -0.2 2.2 0.4 0.4 0.7 -0.4 1.1 -1.9 1.1 -1.6 0 -2.6 -0.6 -2.6 -1.5 0 -0.8 -0.7 -1.5 -1.5 -1.5 -0.8 0 -1.4 0.3 -1.4 0.8 0.3 2 -0.2 3.2 -1.5 3.2 -0.8 0 -1.7 0.7 -2 1.6 -0.3 0.8 -1 1.2 -1.6 0.9 -0.5 -0.3 -1 -0.1 -1 0.4 0 0.6 -0.7 1.1 -1.5 1.1 -1.3 0 -1.4 0.4 -0.5 2 1.2 2.2 0.1 2.7 -2.8 1.1 -1.2 -0.6 -2.4 -0.5 -3.7 0.5 -1.8 1.4 -1.8 1.4 0.3 1.4 1.5 0 2 0.4 1.6 1.5 -0.4 0.9 -1.1 1.5 -1.8 1.4 -0.6 -0.1 -2.6 -0.1 -4.5 0 -2.9 0.1 -3.2 0.3 -2.1 1.6 1.3 1.5 0.5 1.7 -6 1.8 -1.2 0 -1.4 0.9 -1.2 3.8 0.4 3.5 0.7 3.9 3.2 3.9 1.6 0 3.2 0.5 3.5 1 0.8 1.3 -35.7 1.4 -37 0.1z m71.9 -53.6 c0.5 -2.2 0.4 -2.6 -0.4 -1.5 -0.5 0.8 -1 2.4 -1 3.4 0 2.6 0.6 1.8 1.4 -1.9z"/>
  <path d="M123.2 419.5 l-2.2 -3.5 3 0 c2.8 0 3 0.3 3 3.5 0 4.4 -0.9 4.4 -3.8 0z"/>
  <path d="M318 404.3 c0 -0.5 0.5 -1.5 1 -2.3 0.8 -1.2 1 -1.1 1 0.8 0 1.2 -0.4 2.2 -1 2.2 -0.5 0 -1 -0.3 -1 -0.7z"/>
  <path d="M337.6 400.9 c0.2 -0.4 -0.6 -1 -1.8 -1.2 -1.7 -0.3 -1.4 -0.5 1 -0.6 2.1 -0.1 3.2 0.4 3.2 1.2 0 0.8 -0.7 1.4 -1.5 1.4 -0.8 0 -1.2 -0.4 -0.9 -0.8z"/>
  <path fill="url(#lg3)" d="M175.3 266.3 c-4.6 -4.7 -8.3 -9 -8.3 -9.6 0 -0.5 -0.9 -1.8 -2.1 -2.8 -1.8 -1.5 -1.9 -2.1 -0.8 -4.1 1.1 -2 6.5 -9.4 7.9 -10.8 0.3 -0.3 2.5 -3 5 -6 10.1 -12.5 30.8 -32.9 37.3 -36.8 1.5 -0.9 2.7 -2 2.7 -2.4 0 -0.4 0.6 -0.8 1.3 -0.8 0.6 -0.1 2.8 -1.4 4.7 -3 1.9 -1.7 4 -3 4.7 -3 0.7 0 1.3 -0.3 1.3 -0.7 0 -0.5 1 -1.3 2.3 -1.9 1.2 -0.6 5 -2.6 8.5 -4.5 5.3 -2.7 6.6 -3.1 8.2 -2.1 1.1 0.6 4.4 1.5 7.5 1.8 5.5 0.7 5.5 0.7 5.5 4 0 3.3 -0.1 3.4 -4 3.4 -2.8 0 -4 0.4 -4 1.4 0 0.8 -0.7 1.6 -1.5 2 -0.8 0.3 -1.5 1.2 -1.5 2.1 0 0.8 -0.7 1.5 -1.5 1.5 -1.1 0 -1.5 1.1 -1.5 4 0 2.9 -0.4 4 -1.5 4 -0.8 0 -1.5 0.4 -1.5 0.9 0 1.1 3.5 2.1 7.3 2.1 2.4 0 2.7 0.4 2.7 3.5 0 2.4 -0.5 3.5 -1.5 3.5 -0.8 0 -1.5 0.5 -1.5 1 0 0.6 -1.6 1 -3.5 1 -2.7 0 -3.5 0.4 -3.5 1.8 0 1.7 -3.2 5.2 -4.8 5.2 -0.4 0 -2.1 1.2 -3.7 2.8 -1.7 1.5 -5.5 4.8 -8.5 7.3 -11.1 9.4 -24.5 23.4 -32 33.4 -2.3 3 -9.9 10.5 -10.8 10.5 -0.4 0 -4.4 -3.9 -8.9 -8.7z"/>
 </g>
 <g fill="#212a37">
  <path fill="url(#lg2)" d="M364.1 344.3 c-2.1 -0.4 -2.3 -0.9 -1.8 -4.9 0.3 -3.3 0.1 -4.4 -0.9 -4.4 -0.8 0 -1.4 -1 -1.4 -2.5 0 -1.4 -0.4 -2.5 -1 -2.5 -0.5 0 -1 -0.9 -1 -2 0 -1.1 -0.7 -2 -1.5 -2 -0.9 0 -1.5 -0.9 -1.5 -2.5 0 -1.6 -0.6 -2.5 -1.6 -2.5 -2.4 0 -1.5 -8 1.1 -9.4 1.1 -0.6 2.2 -1.3 2.5 -1.6 0.3 -0.3 1.9 -1.2 3.5 -2 4.9 -2.4 10.8 -6.2 13.7 -8.8 1.5 -1.4 3.3 -2.2 4.2 -1.9 1 0.4 1.3 0.1 1 -0.7 -0.3 -0.8 -0.1 -1.7 0.5 -2 0.6 -0.4 1.9 1.2 3.1 3.6 2.2 4.7 2.5 6.2 0.9 5.3 -0.6 -0.4 -0.5 0.2 0.3 1.4 0.7 1.2 1.9 2.1 2.6 2.1 2.9 0 8.1 8.5 6.3 10.3 -0.8 0.8 -1.1 0.6 -1.1 -0.8 0 -2.1 -1.3 -1.3 -1.6 1.1 -0.2 1 0.5 1.4 1.9 1.2 1.4 -0.2 2.3 0.3 2.5 1.6 0.3 1.1 0 1.6 -0.7 1.2 -0.6 -0.4 -1.1 -0.2 -1.1 0.3 0 1.7 4.4 0.7 5.2 -1.1 0.6 -1.5 3 -2.4 4.1 -1.6 0.7 0.6 4.4 -3.7 4.1 -4.7 -0.3 -0.8 0.3 -1.2 1.8 -1.1 1.4 0.1 2.7 -0.8 3.5 -2.4 0.7 -1.4 1.3 -2.1 1.3 -1.5 0 0.5 1.2 -0.3 2.6 -1.8 1.4 -1.6 2.8 -2.6 3.1 -2.3 0.6 0.6 -13.1 14.3 -18.2 18.1 -2.1 1.6 -4.7 3.7 -5.6 4.6 -0.9 0.9 -3 2.5 -4.8 3.5 -1.7 1 -3.1 2.2 -3.1 2.6 0 0.4 -0.5 0.8 -1.1 0.8 -0.6 0 -3 1.4 -5.4 3 -2.4 1.7 -4.7 3 -5.2 3 -0.4 0 -1.9 0.9 -3.3 2 -2.5 2 -3.5 2.1 -7.9 1.3z m25.3 -17 c0.3 -0.7 -0.1 -1.3 -0.8 -1.3 -0.8 0 -1.6 0.6 -1.9 1.3 -0.3 0.8 0.1 1.4 0.9 1.4 0.7 0 1.5 -0.6 1.8 -1.4z"/>
  <path fill="url(#lg2)" d="M396 318.5 c-0.7 -2.4 -0.4 -5.1 0.7 -6.2 1.6 -1.8 2.8 -1.6 1.4 0.1 -1 1.1 -0.8 1.6 0.8 2.1 2.1 0.6 2.9 2.5 1.1 2.5 -0.5 0 -1 -0.4 -1 -1 0 -2 -1.9 -1 -2.3 1.3 -0.2 1.2 -0.6 1.8 -0.7 1.2z"/>
  <path fill="url(#lg2)" d="M413.3 260.8 c1 -1.5 1.7 -4.3 1.7 -6.3 0 -1.9 0.5 -3.5 1 -3.5 0.6 0 1 -0.6 1 -1.2 0.1 -0.7 2.3 -3.8 5.1 -6.8 3.7 -4.2 5.1 -5.2 5.8 -4.1 0.5 0.7 1.4 1.1 1.9 0.7 0.7 -0.4 0.9 0.1 0.7 1.4 -0.5 2.5 -0.8 3 -4.2 6.9 -6.2 7.2 -14.5 15.4 -13 12.9z"/>
 </g>
 <g fill="#1d2f47">
  <path d="M144 441 l-3.5 -2.9 3.8 -0.1 c3.5 0 3.7 0.2 3.7 3 0 1.7 -0.1 3 -0.3 3 -0.1 0 -1.8 -1.3 -3.7 -3z"/>
  <path d="M132.2 430.5 l-3.3 -4 2.7 -0.3 c3.5 -0.5 4.6 0.8 4.2 4.9 l-0.3 3.4 -3.3 -4z"/>
  <path d="M114.4 407.7 c-0.5 -0.7 -1.3 -2 -1.7 -2.9 -0.5 -1.4 -0.1 -1.8 1.8 -1.8 2.1 0 2.5 0.5 2.5 3 0 3.2 -0.8 3.7 -2.6 1.7z"/>
  <path d="M106.2 394 c-1.8 -2.9 -1.5 -5 0.8 -5 1.6 0 2 0.7 2 3.5 0 3.9 -0.9 4.4 -2.8 1.5z"/>
  <path d="M102.2 385 c-1.8 -2.9 -1.5 -5 0.8 -5 1.6 0 2 0.7 2 3.5 0 3.9 -0.9 4.4 -2.8 1.5z"/>
  <path fill="url(#lg3)" d="M189.6 269.8 c0.3 -1 0.9 -1.8 1.3 -1.8 0.4 0 1.7 -2.4 2.9 -5.2 1.6 -3.8 5 -8.2 12.1 -15.5 5.5 -5.7 10.5 -10.3 11 -10.3 0.6 0 1 -0.4 0.9 -0.8 -0.2 -0.5 1.2 -2.5 3 -4.6 1.7 -2 3.2 -3.4 3.2 -3.1 0 0.3 0.9 -0.4 2 -1.5 1.2 -1.2 2.5 -1.8 3 -1.5 0.6 0.4 1 -0.1 1 -0.9 0 -0.9 0.7 -1.6 1.5 -1.6 1.6 0 2.8 -0.8 7 -4.8 2.7 -2.5 3.1 -3.7 1.5 -4.7 -0.5 -0.3 -1 -0.1 -1 0.5 0 0.6 -0.4 0.9 -0.9 0.5 -0.5 -0.3 -1.1 0.5 -1.3 1.7 l-0.3 2.3 -0.7 -2.3 c-0.7 -2.5 1.7 -5.6 3.5 -4.5 0.7 0.3 0.8 0.2 0.4 -0.3 -0.5 -0.5 -1.3 -1 -1.8 -1 -0.5 -0.1 -1.3 -0.2 -1.9 -0.3 -0.5 0 -0.7 -0.8 -0.4 -1.6 0.5 -1.2 0.9 -1.3 2 -0.4 0.8 0.7 1.8 0.8 2.2 0.4 0.4 -0.4 0.1 -1 -0.5 -1.2 -1.9 -0.7 -1.6 -4 0.4 -5.2 1 -0.5 1.4 -1.3 1 -1.7 -0.5 -0.5 -1.1 -0.4 -1.5 0.1 -1 1.4 -3.2 1.7 -3.2 0.4 0 -0.5 -0.6 -0.7 -1.2 -0.3 -0.8 0.4 -0.9 0.3 -0.5 -0.2 0.5 -0.5 1.6 -0.9 2.5 -0.9 1.2 0 1.6 -0.7 1.4 -2.4 -0.2 -2.3 -0.1 -2.3 1.5 -0.9 3.2 2.7 4.2 2.9 4 1 -0.1 -1.2 -0.7 -1.8 -1.7 -1.5 -1 0.3 -1.9 -0.6 -2.6 -2.6 -1 -2.4 -0.9 -2.9 0.2 -2.4 0.7 0.3 1.3 0.8 1.2 1.1 -0.2 2.2 0.4 2.4 1.8 0.4 1 -1.4 2.2 -2.1 3.1 -1.7 1.3 0.4 1.4 0.3 0.3 -1 -1.1 -1.4 -0.7 -1.9 1.3 -1.6 0.4 0 0.7 -0.6 0.7 -1.5 0 -1.3 -0.3 -1.4 -1.4 -0.5 -1 0.9 -1.7 0.7 -2.7 -0.6 -1.2 -1.4 -1.2 -1.6 0 -0.8 1 0.6 1.2 0.4 0.7 -0.4 -0.6 -0.9 -1.2 -0.9 -2.5 0.3 -1.3 1.2 -2 1.3 -2.9 0.4 -0.7 -0.7 -1.2 -0.8 -1.2 -0.4 0 0.5 -0.8 0.2 -1.7 -0.5 -1 -0.8 -1.4 -0.9 -1 -0.2 0.5 0.8 0.1 1.1 -1.2 1 -2.9 -0.2 -1.9 -1 5.6 -4.6 3.7 -1.8 8.5 -4.2 10.6 -5.2 2.2 -1.1 4.7 -1.9 5.7 -1.9 1.1 0 2.2 -0.4 2.5 -1 0.3 -0.5 1.9 -1 3.5 -1 1.6 0 3.2 -0.4 3.5 -1 0.3 -0.5 1.9 -1 3.5 -1 1.6 0 3.2 -0.4 3.5 -1 0.3 -0.5 3.1 -1 6.1 -1 4.7 0 5.4 0.2 5.4 2 0 1.3 0.7 2 2 2 1.6 0 2 0.7 2 3.3 0 1.8 -0.5 3.8 -1.1 4.4 -0.6 0.6 -1.2 3.5 -1.3 6.4 -0.1 3.1 -0.6 5.4 -1.4 5.7 -0.6 0.2 -1.2 1.3 -1.2 2.4 0 1 -0.7 2.6 -1.5 3.4 -0.8 0.9 -1.5 2.3 -1.5 3.2 0 1.6 -6.8 5.2 -9.7 5.2 -1 0 -4.4 1.5 -11.5 5.1 -1 0.5 -2.3 0.9 -2.9 0.9 -0.6 0 -2.3 0.8 -3.7 1.9 -4.8 3.4 -11.9 7 -12.5 6.4 -0.4 -0.3 -0.9 0.2 -1.3 1.1 -0.3 0.9 -1.3 1.6 -2.1 1.6 -0.8 0 -1.1 0.5 -0.8 1 0.3 0.6 -0.3 1 -1.4 1 -1.2 0 -2.1 0.6 -2.1 1.4 0 0.7 -2.6 3.6 -5.7 6.3 -11.8 10.2 -22 20.9 -31.3 32.7 -4 5 -6 7 -5.4 5.4z m52.1 -86.5 c-0.4 -0.3 -0.2 -1.2 0.4 -2 1.2 -1.4 0.9 -1.6 -1.5 -0.7 -1.6 0.6 -1.1 3.4 0.7 3.4 0.6 0 0.7 -0.3 0.4 -0.7z"/>
  <path d="M219.3 229.3 c-0.7 -0.2 -1.3 -0.9 -1.3 -1.4 0 -0.6 0.4 -0.8 0.9 -0.5 0.5 0.4 1.2 0 1.4 -0.6 0.3 -0.7 0.6 -0.3 0.6 1 0.1 1.2 0 2.2 -0.1 2.1 -0.2 0 -0.9 -0.3 -1.5 -0.6z"/>
  <path d="M221 224.5 c-0.9 -1.1 -0.7 -1.3 1.4 -0.9 2 0.3 2.7 0 3.1 -1.9 0.4 -1.3 1.4 -2.3 2.5 -2.4 1.3 -0.1 1.7 0.3 1.3 1.3 -0.3 0.7 -0.9 1.2 -1.4 0.9 -0.4 -0.3 -1.3 0.3 -1.8 1.4 -1.4 2.5 -3.7 3.3 -5.1 1.6z"/>
 </g>
 <g fill="#2a3340">
  <path fill="url(#lg2)" d="M352.6 347 c-1 -2.2 -2.2 -4 -2.7 -4 -0.5 0 -0.9 -0.7 -0.9 -1.5 0 -0.9 -1.1 -2.6 -2.5 -3.9 -1.4 -1.3 -2.5 -2.8 -2.5 -3.5 0 -0.6 -0.4 -1.1 -1 -1.1 -0.5 0 -1 -0.9 -1 -1.9 0 -1.1 -0.5 -2.1 -1.2 -2.3 -0.6 -0.2 -1.3 -3 -1.6 -6.1 -0.4 -4.8 -0.2 -5.7 1.2 -5.7 0.9 0 2.4 -0.4 3.4 -0.9 0.9 -0.5 2.9 -1.4 4.5 -2 5.3 -2.2 8.2 -3.6 8.8 -4.4 0.3 -0.4 1.2 -0.1 1.9 0.8 1.1 1.3 0.9 1.5 -1.4 1.5 -1.7 0 -2.6 0.5 -2.6 1.6 0 1 0.6 1.4 1.5 1.1 1.7 -0.7 3 0.9 1.6 1.8 -1 0.6 0.3 2.5 4.1 6.7 1.5 1.5 1.5 1.8 0.3 1.8 -0.8 0 -1.5 0.4 -1.5 0.9 0 0.5 0.8 0.8 1.8 0.7 1.2 -0.1 1.8 0.7 2 2.7 0.2 1.5 0.9 2.7 1.8 2.7 0.8 0 1.4 0.5 1.4 1.1 0 0.5 -0.4 0.8 -0.8 0.5 -0.4 -0.2 -0.8 0.4 -0.8 1.4 0 1.8 0.2 1.8 2.4 0.4 2.1 -1.4 2.3 -1.4 2 0.3 -0.2 1 -1.6 2.4 -3.1 3.2 -3.5 1.8 -2.9 2.6 0.7 0.9 2.3 -1 2.9 -0.9 3.7 0.3 1.4 2.2 1.2 2.4 -3.8 4.9 -2.7 1.2 -6.5 3.1 -8.6 4.1 -2.2 1.1 -4.2 1.9 -4.6 1.9 -0.4 0 -1.5 -1.8 -2.5 -4z"/>
  <path d="M373.2 339.9 c0.2 -0.7 1 -1.5 1.7 -1.7 0.8 -0.3 1.2 0.1 0.9 0.9 -0.2 0.7 -1 1.5 -1.7 1.7 -0.8 0.3 -1.2 -0.1 -0.9 -0.9z"/>
  <path d="M415 255.5 c0 -1.4 -0.5 -2.5 -1.2 -2.5 -0.6 0 -0.3 -0.9 0.7 -2 1 -1.1 2.4 -2 3.2 -2 0.7 0 1.3 -0.8 1.3 -1.8 0 -2.5 3.1 -5.2 5.8 -5.2 1.6 0 2.2 -0.6 2.2 -2.2 0 -1.7 0.3 -1.9 0.9 -0.9 0.5 0.8 1.4 1 2.2 0.5 0.8 -0.4 -1.2 2.2 -4.3 5.8 -3.2 3.6 -5.8 7.1 -5.8 7.7 0 0.6 -0.4 1.1 -0.9 1.1 -0.5 0 -1.3 0.9 -1.6 2 -0.9 2.8 -2.5 2.5 -2.5 -0.5z"/>
 </g>
 <g fill="#1a345a">
  <path fill="url(#lg0)" d="M160 452.5 c-0.7 -0.8 -1.9 -1.5 -2.6 -1.5 -0.8 0 -1.4 -0.4 -1.4 -0.9 0 -0.5 -1.7 -2 -3.7 -3.2 -9.6 -5.9 -20.2 -15.6 -26.5 -24.4 -0.4 -0.5 -2 -2.6 -3.6 -4.5 -5.6 -6.9 -13 -18.6 -17.1 -27.5 -2.3 -4.9 -4.6 -9.8 -5.1 -10.7 -0.6 -1 -1 -2.7 -1 -3.7 0 -1.1 -0.4 -2.2 -0.9 -2.5 -0.5 -0.3 -1.1 -1.8 -1.3 -3.3 -0.3 -1.6 -0.8 -3.5 -1.2 -4.4 -0.6 -1.3 0.1 -1.8 3.8 -2.3 6.8 -1 11.3 0.1 12 3 0.6 2.3 2.6 3.4 2.6 1.5 0 -0.5 3.5 -0.9 7.7 -0.8 5.1 0.1 7.8 -0.3 8.1 -1.1 0.2 -0.6 1.9 -1.4 3.8 -1.8 1.9 -0.3 3.4 -1 3.4 -1.5 0 -0.5 0.9 -0.9 2 -0.9 1.1 0 2 -0.4 2 -1 0 -0.5 1.1 -1 2.5 -1 2.1 0 2.5 -0.5 2.5 -3.1 0 -2.2 0.5 -3.2 2 -3.6 1 -0.3 2.2 -1.3 2.5 -2.2 0.3 -1 1.7 -2.4 3 -3.1 1.4 -0.7 2.5 -2.1 2.5 -3 0 -0.9 0.5 -2.1 1.2 -2.8 0.8 -0.8 1.2 -5 1.2 -11.9 0 -10.5 -0.1 -10.9 -2.9 -13.8 -4.6 -4.9 -6.5 -8.8 -6.5 -13 l0 -4 4.3 4.6 c11.2 12.3 14.9 16.1 24.3 24.7 5.6 5.2 11.2 10.1 12.5 11 1.3 0.9 3 2.2 3.7 2.9 0.8 0.7 3 2.6 5 4.1 2.1 1.5 4.6 3.5 5.6 4.5 1.1 0.9 2.6 1.7 3.3 1.7 0.7 0 1.3 0.3 1.3 0.8 0 0.4 1.8 1.8 4 3.2 2.6 1.6 3.6 2.8 3 3.4 -1.6 1.6 -1.1 2.6 1.3 2.6 2 0.1 2.1 0.1 0.4 1.1 -1.8 1 -1.8 1.2 0.4 2.7 2.1 1.5 2.1 1.6 0.4 2.9 -1.7 1.2 -1.7 1.3 0.8 1.3 1.5 0 2.7 0.5 2.7 1 0 0.6 -0.4 1 -1 1 -0.5 0 -1 0.5 -1 1 0 0.6 0.9 1 2 1 1.2 0 2 0.7 2 1.6 0 1.1 0.6 1.5 2 1.1 1.1 -0.3 1.8 -0.1 1.4 0.4 -0.3 0.5 0 1 0.5 1 3.7 0.5 3.6 0.4 4.4 4.7 0.5 2.3 0.3 3.1 -0.5 2.6 -1.3 -0.8 -0.3 1.2 2 3.8 1.3 1.6 1.3 1.8 -0.2 2.4 -2.4 0.9 -2.1 3.8 0.4 3.1 1.7 -0.4 1.9 -0.1 1.4 1.8 -0.3 1.2 -0.1 2.6 0.5 3 0.6 0.3 0.9 1.1 0.5 1.6 -0.3 0.5 -0.9 0.7 -1.4 0.4 -0.5 -0.3 -1.5 0.3 -2.2 1.5 -0.7 1.1 -2 2 -2.9 2 -0.9 0 -2.4 0.9 -3.3 1.9 -1.7 1.8 -1.7 2 0.1 2.9 1 0.6 1.4 1.4 0.9 1.9 -0.5 0.4 -1.1 0.2 -1.3 -0.4 -0.3 -0.7 -1.1 -1.3 -1.8 -1.3 -0.7 0 -1.6 0.6 -1.9 1.3 -0.3 0.6 -0.3 -0.1 0 -1.8 0.3 -1.6 0.2 -2.7 -0.2 -2.3 -0.4 0.4 -1.2 0.3 -1.9 -0.2 -0.9 -0.7 -1.1 -0.2 -1 2 0.1 2.4 -0.1 2.8 -1.1 1.9 -1.1 -0.9 -1.6 -0.5 -2.4 1.5 -0.6 1.8 -1.4 2.4 -2.5 1.9 -1.2 -0.4 -1.6 -0.1 -1.3 1.3 0.2 1.5 -0.2 1.8 -2 1.6 -1.2 -0.2 -2.2 0 -2.1 0.5 0.1 0.4 0.1 1.9 0 3.3 -0.1 1.9 -0.4 2.1 -1.3 1.2 -1.8 -1.8 -3.1 -1.4 -2.5 0.8 0.3 1.3 0 2 -1 2 -0.9 0 -1.1 0.5 -0.7 1.3 0.5 0.7 0 0.6 -1 -0.3 -1.7 -1.4 -1.8 -1.2 -1.5 2.7 0.3 3.1 0.1 3.9 -0.7 3.2 -0.7 -0.5 -1 -1.9 -0.7 -2.9 0.3 -1.1 0.1 -2 -0.5 -2 -0.5 0 -1.3 1.1 -1.6 2.5 -0.7 2.7 -2.6 3.4 -2.6 1 0 -0.8 -0.4 -1.5 -0.8 -1.5 -0.9 0 -1.1 0.9 -1.3 7 -0.1 2.2 -0.6 4 -1.1 4 -0.5 0 -0.6 0.9 -0.3 2 0.7 2.1 -1 2.9 -1.8 0.8 -0.2 -0.7 -0.8 -1 -1.2 -0.6 -0.4 0.4 -0.3 2.1 0.3 3.7 0.9 2.5 0.8 3.1 -0.4 3.1 -0.7 0 -1.4 -0.8 -1.4 -1.9 0 -1 -0.8 -2.5 -1.7 -3.2 -1.6 -1.2 -1.7 -1.2 -0.6 0.1 0.8 1 0.9 2.1 0.2 3 -0.8 1.3 -1 1.3 -1.9 0 -0.8 -1.2 -1 -1.2 -1 -0.1 0 0.9 -0.8 1.2 -2.5 0.9 -1.7 -0.4 -2.6 0 -3 1.3 -1 3 -3.1 4.2 -5.2 2.9 -1.6 -1 -1.6 -1.1 0.4 -0.7 2.9 0.6 3.7 -0.7 2.2 -3.5 l-1.2 -2.2 -2.4 2.9 c-1.5 1.6 -2.8 2.4 -3.1 1.8 -1.1 -1.6 -5 -2.5 -5.7 -1.3 -0.3 0.5 0.1 1.3 0.9 1.6 0.9 0.3 1.6 1 1.6 1.5 0 1.4 -1.6 1.1 -3 -0.6z"/>
  <path d="M193.3 436.5 c0 -0.8 0.6 -1.6 1.4 -1.9 0.8 -0.3 1.3 0.2 1.3 1.4 0 1.1 -0.6 2 -1.3 2 -0.8 0 -1.4 -0.7 -1.4 -1.5z"/>
  <path d="M94.2 361 c-1.8 -2.9 -1.5 -5 0.8 -5 1.6 0 2 0.7 2 3.5 0 3.9 -0.9 4.4 -2.8 1.5z"/>
  <path d="M101 234.6 c0 -0.8 0.5 -1.8 1 -2.1 0.6 -0.3 1 0.3 1 1.4 0 1.2 -0.4 2.1 -1 2.1 -0.5 0 -1 -0.6 -1 -1.4z"/>
 </g>
 <g fill="#2a394f">
  <path d="M214.5 241 c1 -1.1 2 -1.8 2.3 -1.6 0.5 0.6 -2.3 3.6 -3.4 3.6 -0.4 0 0.1 -0.9 1.1 -2z"/>
  <path fill="url(#lg3)" d="M262.5 206.3 c1.7 -0.9 3.2 -1.9 3.5 -2.3 0.3 -0.4 1.7 -1 3.2 -1.3 1.5 -0.4 3.3 -1.4 4.2 -2.2 0.8 -0.8 2 -1.5 2.7 -1.5 0.9 0 0.8 -0.4 -0.1 -1.5 -1 -1.2 -0.9 -1.6 0.4 -2.1 1 -0.4 1.4 -1.3 1.1 -2.4 -0.4 -1.2 0.3 -2.5 2.1 -3.9 1.5 -1.2 2.4 -2.2 2 -2.2 -0.3 -0.1 -1 -0.3 -1.6 -0.4 -0.5 -0.1 -1.3 -0.3 -1.7 -0.4 -0.4 0 0.3 -1 1.5 -2.1 2.5 -2.4 2.8 -3.2 0.8 -2.4 -0.7 0.3 -1.6 -0.2 -1.9 -1 -0.6 -1.4 0.2 -1.9 2.3 -1.8 0.3 0 1.3 -1.1 2.3 -2.4 1.8 -2.4 1.8 -2.4 -0.8 -2.4 -2.1 0 -2.6 -0.4 -2.3 -2.1 0.4 -2.6 -2.5 -3.5 -4.2 -1.4 -0.6 0.8 -1.8 1.1 -2.6 0.8 -0.8 -0.3 -1.4 0 -1.4 0.6 0 0.6 -0.7 1.1 -1.6 1.1 -0.8 0 -1.3 -0.4 -0.9 -0.9 1 -1.6 -1.2 -2.1 -2.5 -0.6 -0.7 0.8 -1.6 1.2 -2.2 0.9 -1.6 -1 1.3 -3.4 4.1 -3.4 1.5 0 3.1 -0.4 3.7 -0.9 1.2 -1.2 9.5 -2.1 24.7 -2.7 12.4 -0.5 12.8 -0.4 14.7 1.8 2.2 2.7 2.6 8.3 0.6 9.1 -0.9 0.4 -1.5 3.4 -2 9.3 -0.8 9.3 -1.8 12.4 -4.1 12.4 -0.7 0 -1.5 0.4 -1.7 1 -0.1 0.5 -4.6 1.2 -9.8 1.5 -5.2 0.4 -11.1 1 -13 1.5 -8.1 2 -12.7 3.3 -15.7 4.6 -4.5 2 -7.6 1.8 -3.8 -0.3z"/>
 </g>
 <g fill="#333c48">
  <path fill="url(#lg2)" d="M330 355 c0 -0.5 -0.5 -1 -1.1 -1 -0.7 0 -2.5 -1.3 -4 -3 -2.3 -2.4 -2.9 -3.9 -2.9 -7.5 0 -2.4 -0.5 -7.6 -1.2 -11.3 -1.1 -6.4 -1 -7.1 0.8 -8.9 2.3 -2.4 4.5 -3.3 10.4 -4.4 2.5 -0.5 5.9 -1.1 7.5 -1.4 3 -0.6 3 -0.6 3 3.3 0 3.2 0.6 4.5 2.7 6.2 1.5 1.1 2.5 2.7 2.2 3.4 -0.7 1.8 2.6 5.6 4.8 5.6 2.1 0 2.3 1.1 0.6 2.9 -1.1 1.1 -0.8 1.2 1.2 0.6 1.7 -0.4 2.1 -0.3 1.1 0.3 -2.1 1.5 -0.4 3.4 1.9 2.2 1.6 -0.8 1.8 -0.8 1.4 0.5 -0.4 0.8 -1 1.5 -1.5 1.5 -0.5 0 -0.9 0.5 -0.9 1.1 0 0.8 1.4 1 4 0.6 2.2 -0.3 4 -0.2 4 0.2 0 1.3 -4.7 3.4 -5.9 2.7 -0.6 -0.4 -1.1 0 -1.1 0.8 0 0.9 -0.8 1.6 -1.9 1.6 -1.1 0 -2.3 0.5 -2.6 1 -0.3 0.6 -2.1 1 -3.9 1 -1.7 0 -3.6 0.4 -4.2 0.9 -1.4 1.3 -14.4 2.4 -14.4 1.1z"/>
  <path fill="url(#lg2)" d="M415 254.8 c0 -0.9 -0.6 -1.8 -1.2 -2.1 -0.9 -0.3 -0.2 -1.6 1.8 -3.7 2.3 -2.4 3.8 -3.1 5.9 -2.8 l2.8 0.3 -4.6 5 c-3 3.3 -4.6 4.4 -4.7 3.3z"/>
 </g>
 <g fill="#1f3f6a">
  <path fill="url(#lg0)" d="M105.8 390.5 c-1.6 -3 -2.8 -6.1 -2.8 -6.8 0 -0.8 -0.9 -2.6 -2.1 -4.1 -1.4 -1.8 -1.9 -3.5 -1.5 -5 0.4 -1.6 0.1 -2.6 -0.9 -3 -0.8 -0.3 -1.5 -1.2 -1.5 -2.1 0 -0.8 -0.4 -2.3 -0.9 -3.3 -1.5 -3 -3.1 -8.8 -3.1 -11.3 0 -1.4 -0.4 -2.9 -0.9 -3.5 -0.5 -0.5 -1.2 -3.1 -1.5 -5.9 -1.6 -12.8 -1.8 -15.5 -0.7 -15.5 0.6 0 1.1 -0.6 1.1 -1.3 0 -2.4 3.6 -5.7 6.1 -5.7 4.7 0 9.9 1.3 9.9 2.4 0 0.7 2 1.1 5 1.1 3.4 0 5 -0.4 5 -1.2 0 -0.7 0.7 -1.3 1.5 -1.3 0.9 0 1.8 -0.7 2.1 -1.5 0.4 -0.8 1.8 -1.5 3.3 -1.5 3.1 0 5.1 -1.6 5.1 -4.1 0 -0.9 0.6 -1.9 1.3 -2.2 3.1 -1.2 4.1 -16.4 2.1 -30.4 -0.7 -5.2 0.6 -5.6 3.5 -1 1.1 1.7 3 4.3 4.3 5.7 6.1 6.7 11.5 13.8 12.6 16.5 0.7 1.7 2.7 4.7 4.6 6.7 3.7 4 5 6.5 4.7 9 -0.1 0.9 0.3 1.9 0.9 2.3 1.5 1 1.2 2.3 -0.7 2.8 -1.3 0.3 -1.2 0.5 0.5 0.6 1.8 0.1 2.2 0.5 1.7 2 -0.4 1.3 0 2.3 1.2 3 1 0.6 1.3 1.1 0.8 1.1 -0.6 0 -1.6 -0.5 -2.2 -1.1 -0.8 -0.8 -1.3 -0.8 -1.8 0.1 -0.4 0.6 0 1.7 0.8 2.3 0.9 0.7 1.9 2.4 2.3 4 0.5 2.1 0.3 2.7 -1.1 2.7 -0.9 0 -1.3 0.4 -1 1 0.8 1.4 -0.7 3.5 -2.5 3.5 -0.8 0 -1.6 0.9 -1.8 2.1 -0.2 1.2 -1.4 2.7 -2.7 3.4 -1.3 0.7 -2.2 1.6 -2 2.1 0.3 0.4 -0.1 1 -0.7 1.2 -0.9 0.4 -0.9 0.6 -0.1 0.6 0.8 0.1 0.8 0.7 0 2.5 -0.7 1.4 -1.7 2.2 -2.6 1.8 -0.9 -0.3 -1.2 0 -0.9 0.9 0.7 2.1 -1.3 3.6 -4 3.1 -1.8 -0.4 -2.3 -0.1 -2 0.9 0.6 1.8 -1.9 4.2 -3.4 3.3 -0.8 -0.5 -0.9 -0.2 -0.5 0.9 0.5 1.3 0.1 1.7 -1.9 1.7 -1.6 0 -2.8 0.8 -3.5 2.3 -0.9 2 -0.9 2 -0.4 -0.5 0.3 -1.5 0 -3 -0.7 -3.4 -0.7 -0.4 -0.8 -0.3 -0.4 0.5 0.4 0.6 0.2 1.9 -0.5 2.7 -1 1.3 -1.4 1.3 -2.9 -0.1 -2.3 -2.1 -3.4 -0.5 -2.5 3.8 0.7 3.2 0.7 3.2 -1 0.9 -1.9 -2.6 -3.5 -2.1 -3.5 1.1 -0.1 1.9 -0.2 2 -1 0.5 -0.6 -1 -2 -1.5 -3.5 -1.3 -1.4 0.1 -2.5 -0.2 -2.5 -0.8 0 -0.6 -0.6 -0.3 -1.3 0.7 -0.8 1.1 -2.1 1.6 -3.3 1.3 -1.8 -0.5 -1.7 -0.5 0.3 -1.2 1.3 -0.4 2 -1.2 1.7 -1.7 -0.3 -0.5 -1.2 -0.7 -2 -0.4 -0.9 0.3 -1.8 -0.8 -2.6 -3.7 l-1.3 -4.2 -0.5 3.5 c-0.4 2.4 -0.1 3.9 1 4.8 1.3 1.1 1.3 1.3 -0.2 2.3 -1 0.5 -1.8 1.7 -1.8 2.4 0 1.8 1.2 1.9 2.8 0.3 0.7 -0.7 1.2 -0.8 1.2 -0.2 0 0.5 -0.9 1.5 -2 2.2 -2.1 1.3 -2.7 3.2 -0.9 3.2 0.5 0 0.7 -0.4 0.4 -1 -0.3 -0.5 0.1 -1 0.9 -1 1.9 0 3 1.7 1.6 2.5 -0.8 0.5 -0.6 1.3 0.4 2.4 0.9 1 1.3 2.1 1 2.4 -0.4 0.4 -1.3 -0.1 -2 -1.1 -0.7 -0.9 -1.5 -1.4 -1.8 -1.1 -0.7 0.7 1.6 5.9 2.7 5.9 0.5 0 0.5 0.5 0.2 1 -1.1 1.8 -2 1 -4.7 -4.5z m16.1 -16.4 c0.7 -0.5 1 -1.4 0.6 -2 -0.5 -0.9 -1 -0.9 -2.1 0 -2.6 2.2 -1.4 3.8 1.5 2z"/>
  <path d="M101 235 c0 -1.1 0.4 -2 0.9 -2 0.5 0 1.1 0.9 1.4 2 0.3 1.3 0 2 -0.9 2 -0.8 0 -1.4 -0.9 -1.4 -2z"/>
 </g>
 <g fill="#374352">
  <path fill="url(#lg2)" d="M320 356.1 c0 -0.6 -0.7 -1.1 -1.5 -1.1 -0.8 0 -1.5 -0.7 -1.5 -1.5 0 -0.8 -0.4 -1.5 -1 -1.5 -0.5 0 -1 -0.7 -1 -1.5 0 -0.8 -0.5 -1.5 -1.1 -1.5 -0.6 0 -0.9 -2.1 -0.8 -5.5 0.1 -3 0 -5.8 -0.4 -6.2 -1.4 -1.3 -0.6 -6.9 1.6 -11.3 2.1 -4.2 2.5 -4.5 7.2 -5.1 2.8 -0.4 5.9 -0.9 7 -1.1 1.1 -0.3 1.4 -0.3 0.8 -0.1 -0.7 0.3 -1.3 1 -1.3 1.8 0 0.7 -0.6 1.8 -1.4 2.5 -0.8 0.6 -1.2 1.8 -0.9 2.7 0.3 0.8 0 1.9 -0.7 2.3 -1 0.6 -1.1 1.7 -0.1 5.1 0.7 2.4 1.3 5 1.3 5.7 0.1 0.6 0.6 1.2 1.2 1.2 0.6 0 0.3 0.7 -0.7 1.4 -1.4 1.1 -1.6 1.9 -0.9 3.3 1.3 2.2 4.9 5.3 6.2 5.3 0.6 0 1 0.4 1 1 0 0.5 1.7 0.7 3.7 0.4 2.3 -0.3 4 0 4.5 0.8 0.6 1 0.8 1 0.8 0.1 0 -0.7 0.5 -1.3 1 -1.3 0.5 0 0.9 0.6 0.7 1.3 -0.4 2.1 -23.7 4.9 -23.7 2.8z"/>
  <path d="M426 241.2 c0 -3.5 0.5 -3.9 2.5 -1.8 1.2 1.2 1.1 1.6 -0.5 3.1 -1.9 1.8 -2 1.7 -2 -1.3z"/>
  <path fill="url(#lg3)" d="M292 199.8 c0 -1.8 4.6 -3.7 7.5 -3.2 2.7 0.5 3.2 -0.5 1.3 -2.5 -1.1 -1.1 -0.9 -1.1 1.1 -0.1 3.1 1.6 4.3 0.3 4.8 -5.2 0.3 -2.3 0.6 -4.5 0.9 -4.7 0.2 -0.2 -0.3 -0.9 -1.2 -1.6 -1.5 -1 -1.5 -1.3 0.1 -2.8 0.9 -1 1.3 -2.2 0.8 -2.9 -1.1 -1.8 -1.6 -5.7 -0.5 -4 0.5 0.7 1.6 1 2.6 0.6 1.4 -0.5 1.5 -0.9 0.4 -2.3 -0.7 -0.9 -1.9 -2.6 -2.6 -3.8 l-1.2 -2.3 8.9 0 c5 0 9.3 0.5 9.6 1 0.3 0.6 1.9 1 3.4 1 2.4 0 3 0.5 3.5 3.1 1 5.2 0.7 7.9 -0.9 7.9 -0.8 0 -1.9 1.6 -2.5 4 -0.6 2.2 -1.5 4 -1.9 4 -0.5 0 -1.2 2 -1.6 4.6 -0.5 3.6 -1.2 4.7 -3.3 5.7 -1.5 0.6 -3.4 2 -4.3 2.9 -1.4 1.5 -3.4 1.8 -13.3 1.8 -8.6 0 -11.6 -0.3 -11.6 -1.2z"/>
 </g>
 <g fill="#414c5a">
  <path fill="url(#lg2)" d="M302.6 355.5 c-1.7 -1.3 -1.8 -2.7 -1.5 -16.3 0.3 -10.7 0.8 -15.4 1.8 -16.6 1.1 -1.3 3.2 -1.6 11.5 -1.5 6.5 0 9.4 0.3 8 0.9 -1.8 0.7 -5 5.7 -5.4 8.5 -0.1 0.6 -0.6 1.5 -1.1 2.2 -0.7 0.7 -0.6 1.4 0.2 1.8 0.8 0.5 0.9 2.5 0.5 6.1 -0.4 3.4 -0.2 5.4 0.4 5.4 0.5 0 1 0.7 1 1.5 0 0.8 0.5 1.5 1 1.5 0.6 0 1 0.7 1 1.6 0 1.1 0.6 1.3 1.9 0.9 1.4 -0.4 1.9 -0.1 1.7 1.2 -0.1 1.4 0.7 1.6 4.7 1.4 3.7 -0.2 4.7 0.1 4.7 1.3 0 1.4 -1.9 1.6 -14.2 1.6 -10.7 -0.1 -14.8 -0.4 -16.2 -1.5z"/>
  <path d="M415 254.8 c0 -0.9 -0.6 -1.9 -1.2 -2.1 -0.7 -0.3 0 -0.6 1.6 -0.6 2.6 -0.1 2.7 0.1 1.5 1.7 -0.7 0.9 -1.5 1.9 -1.6 2.1 -0.2 0.2 -0.3 -0.3 -0.3 -1.1z"/>
  <path fill="url(#lg3)" d="M329 204 c-0.8 -0.5 -3.4 -1 -5.7 -1 -2.3 0 -4.5 -0.4 -4.8 -1 -0.3 -0.6 -5.7 -1.1 -12.3 -1.1 -10.9 -0.2 -11.3 -0.2 -5.7 -1 3.3 -0.5 7.2 -1.1 8.8 -1.3 1.5 -0.2 3.6 -1.4 4.7 -2.6 1.2 -1.3 2.8 -2.5 3.7 -2.6 2.4 -0.4 4.1 -2.4 2 -2.4 -0.9 0 -1.7 -0.5 -1.7 -1.1 0 -0.5 0.4 -0.8 0.9 -0.5 1.3 0.9 3.4 -2.2 2.7 -3.9 -0.3 -0.9 0.1 -1.8 0.9 -2.1 0.8 -0.4 2 -2.4 2.5 -4.5 0.7 -2.4 1.7 -3.9 2.6 -3.9 0.8 0 1.2 -0.5 0.9 -1 -0.3 -0.5 -1.6 -1 -2.8 -1 l-2.1 0 2.2 -1.6 c2.7 -1.8 2.9 -3.4 0.4 -3.4 -1 0 -2.7 -0.7 -3.8 -1.5 -1.7 -1.3 -1.7 -1.4 -0.2 -1.5 0.9 0 2 0.4 2.3 1 0.3 0.5 2.4 1 4.5 1 2.1 0 4.2 0.5 4.5 1 0.3 0.6 1.8 1 3.3 1 1.5 0 4.5 0.7 6.7 1.6 2.2 0.8 4.8 1.7 5.8 2.1 4 1.3 1.1 7.9 -4.9 11.1 -1.4 0.8 -2.6 3.2 -3.8 7.9 -2.6 9.9 -4.5 13.3 -7.6 13.3 -1.4 0 -3.2 -0.5 -4 -1z"/>
 </g>
 <g fill="#274a7a">
  <path d="M91 348.3 c0 -2.8 1 -5.3 2.1 -5.3 1.4 0 1.1 3.4 -0.6 5.6 -1.4 1.9 -1.4 1.9 -1.5 -0.3z"/>
  <path fill="url(#lg0)" d="M88.6 332.3 c-0.4 -4.3 -0.9 -10 -1.2 -12.7 -0.7 -5.6 1.3 -15.7 3.3 -16.9 0.7 -0.4 1.3 -1.8 1.3 -3.1 0 -1.5 0.9 -2.7 2.5 -3.4 1.4 -0.6 2.5 -1.6 2.5 -2.2 0 -0.5 2 -1 4.5 -1 2.4 0 6.6 -0.5 9.4 -1.1 4.4 -0.9 5 -1.4 5.7 -4.2 1.2 -5.3 0.5 -15.9 -1.2 -17.8 -1.7 -1.9 -3.3 -17.9 -1.8 -17.9 0.5 0 4 4.8 7.8 10.5 3.8 5.8 7.9 11.7 9.2 13.3 1.3 1.5 3.1 4.3 4 6.2 0.9 1.9 2.3 3.9 3 4.3 1.6 0.9 1.9 5.7 0.3 5.7 -0.6 0 -0.8 0.9 -0.4 2.1 0.4 1.3 0.2 2.5 -0.5 2.9 -0.8 0.5 -0.9 1.3 -0.4 2.1 0.4 0.7 0.7 3.2 0.5 5.6 -0.2 3 0.1 4.3 1.1 4.3 0.9 0.1 0.7 0.4 -0.4 1 -1.5 0.9 -3.5 6.4 -2.9 8.4 0.1 0.5 -0.5 0.6 -1.3 0.3 -1.7 -0.7 -1.8 1.3 -0.1 2.5 0.6 0.5 0.3 0.8 -0.7 0.8 -0.9 0 -2.4 1 -3.3 2.2 -1.3 1.9 -1.8 2.1 -3.4 1.1 -1.5 -1 -2 -0.9 -2.5 0.2 -0.2 0.7 0 1.5 0.6 1.7 0.6 0.2 0.9 1.2 0.7 2.2 -0.4 1.6 -0.6 1.5 -2.8 -0.5 l-2.3 -2.2 0.6 4.2 c0.5 3.9 0.4 4.1 -1.4 3.1 -1.1 -0.6 -2 -1.5 -2 -2.1 0 -0.6 -0.6 -0.9 -1.2 -0.7 -0.7 0.3 -1.9 -0.1 -2.6 -0.8 -0.8 -0.8 -2 -1 -3.4 -0.5 -3.3 1.2 -7 0.2 -6.4 -1.8 0.5 -1.3 0.4 -1.3 -0.8 0.2 -0.7 0.9 -1.7 1.7 -2.1 1.7 -0.4 0 -1.6 0.9 -2.6 2.1 -1 1.2 -2.4 1.9 -3.1 1.7 -1.8 -0.6 -3.8 1.6 -3.8 4.1 0 1.2 -0.4 2.1 -0.9 2.1 -0.5 0 -1.1 -3.5 -1.5 -7.7z m8.4 -1 c0 -0.5 -0.4 -1.4 -0.9 -2.1 -0.7 -1.1 -0.9 -1.1 -1.4 0.1 -0.3 0.8 -0.3 1.8 0 2.1 0.9 0.8 2.3 0.7 2.3 -0.1z"/>
  <path d="M97 245.4 c0 -1.5 2.3 -4.4 3.4 -4.4 0.3 0 0.6 1.4 0.6 3 0 2.3 -0.4 3 -2 3 -1.2 0 -2 -0.7 -2 -1.6z"/>
  <path d="M100.7 236 c0.3 -1.1 0.8 -2 1.2 -2 0.3 0 1.2 0.9 1.9 2 1.1 1.8 1 2 -1.2 2 -1.9 0 -2.3 -0.4 -1.9 -2z"/>
 </g>
 <g fill="#4d5662">
  <path fill="url(#lg2)" d="M300.5 356.1 c-0.6 -0.6 -3.2 -1.1 -6 -1.3 -4.8 -0.3 -5 -0.4 -5.3 -3.5 -0.2 -2.1 -0.9 -3.3 -1.8 -3.3 -1.8 0 -2 -7.6 -0.2 -8.2 0.8 -0.3 1.5 -3.8 1.9 -10.2 0.6 -10.1 1.2 -11.7 3.1 -9.8 0.7 0.7 4.1 1.2 8 1.2 6.1 0 6.8 0.2 6.8 1.9 0 1.1 -0.4 2.2 -1 2.6 -0.5 0.3 -0.7 1.2 -0.3 2 0.3 0.9 0 2.1 -0.6 2.8 -0.7 0.9 -0.8 2.4 -0.2 4.4 0.6 2.1 0.5 3.5 -0.2 4.2 -0.7 0.7 -0.7 1.1 -0.1 1.1 1.2 0 1.2 4 0 5.9 -0.6 1 -0.5 1.6 0.3 1.9 0.9 0.3 0.9 0.7 0 1.8 -1.4 1.8 1 3.9 5.4 4.8 1.5 0.3 2.7 1 2.7 1.6 0 1.3 -11.3 1.3 -12.5 0.1z"/>
  <path d="M423 243.9 c0 -5.1 3.9 -8.2 5.4 -4.2 0.5 1.1 -0.3 2.7 -2.4 4.7 l-3 3.1 0 -3.6z"/>
  <path fill="url(#lg3)" d="M340 208 c-0.8 -0.4 -2.5 -1.2 -3.7 -1.8 -1.3 -0.7 -3.1 -1.2 -4 -1.2 -1 -0.1 -2.9 -0.7 -4.3 -1.5 l-2.5 -1.4 3.5 -0.1 c2.8 0 3.8 -0.6 5.2 -2.9 0.9 -1.7 1.4 -3.9 1.1 -5 -0.3 -1.2 -0.1 -2.1 0.5 -2.1 1.1 0 2.8 -6.4 2.4 -8.7 -0.2 -0.6 0.7 -1.4 1.8 -1.8 1.1 -0.4 3.5 -2 5.3 -3.6 l3.2 -3 -2.4 -2 c-1.7 -1.4 -1.9 -1.9 -0.8 -1.9 0.9 0 1.9 0.5 2.2 1 0.3 0.6 1.5 1 2.6 1 1 0 2.7 0.4 3.7 0.9 0.9 0.5 3.4 1.7 5.5 2.6 4.1 1.8 4.2 1.9 2.6 6.3 -1.1 3.1 -4.7 6.2 -7.3 6.2 -0.7 0 -2.1 1.5 -3.1 3.3 -0.9 1.7 -2.3 4.3 -3.1 5.7 -0.7 1.4 -1.4 3.6 -1.4 5 0 1.4 -0.4 3 -0.8 3.6 -1 1.5 -4.4 2.2 -6.2 1.4z"/>
 </g>
 <g fill="#305284">
  <path fill="url(#lg0)" d="M87 309.7 c0 -5.7 0.4 -12.8 0.9 -15.8 0.6 -3 1.3 -8.3 1.6 -11.9 1.2 -13.4 1.7 -16.5 2.6 -17.4 0.5 -0.6 0.9 -2.5 0.9 -4.2 0 -1.8 0.5 -3.6 1 -3.9 0.6 -0.3 1 -1.9 1 -3.6 0 -2.8 0.3 -3.7 2.8 -8.6 0.7 -1.3 1.2 -3.1 1.2 -4 0.1 -1.8 2.2 -5.3 3.3 -5.3 0.3 0 2.1 2.1 3.8 4.8 1.8 2.6 3.6 4.9 4.1 5 0.4 0.2 0.8 0.8 0.8 1.3 0 0.5 1.1 2.6 2.4 4.7 1.4 2.1 2.7 6 3.1 9.2 0.4 3 1.4 6.3 2.3 7.3 1.7 1.9 2.4 3.9 2.3 7 0 0.9 0.4 1.5 0.9 1.2 0.5 -0.3 1.1 -0.1 1.5 0.5 0.3 0.6 -0.3 1 -1.6 1 -1.8 0 -1.9 0.2 -0.9 1.5 0.7 0.9 1 1.8 0.7 2.2 -0.4 0.3 -0.2 1.2 0.3 1.8 0.7 0.9 0.6 1.6 -0.4 2.4 -0.8 0.6 -1.2 2 -0.9 3 0.3 1 0 2.2 -0.6 2.5 -0.5 0.4 -0.8 1.3 -0.4 2.1 0.5 1.3 -0.7 2 -2.9 1.6 -0.5 0 -0.8 0.4 -0.8 1 0 0.7 -1 0.9 -2.5 0.5 -1.4 -0.4 -2.5 -0.3 -2.5 0.2 0 0.4 -2.5 0.7 -5.5 0.7 -3 -0.1 -5.5 0.2 -5.5 0.7 0 0.5 -1.1 1.4 -2.5 2 -1.4 0.6 -2.5 1.9 -2.5 2.9 0 2.7 -1.1 5 -2.1 4.3 -0.5 -0.3 -0.9 0.2 -0.9 1.1 0 3 -3.1 12.5 -4.1 12.5 -0.5 0 -0.9 -4.6 -0.9 -10.3z"/>
 </g>
 <g fill="#56606b">
  <path fill="url(#lg2)" d="M289.5 354 c-0.3 -0.5 -1.9 -1 -3.5 -1 -1.6 0 -3.2 -0.4 -3.5 -1 -0.3 -0.5 -1.7 -1 -3.1 -1 -2.1 0 -2.4 -0.5 -2.4 -3.5 0 -2.1 0.6 -3.8 1.4 -4.1 0.8 -0.3 1.2 -1.3 0.9 -2.4 -0.4 -1.6 2.1 -19.6 3.3 -22.9 0.3 -1.1 0.7 -1.2 1.6 -0.3 0.7 0.7 2.6 1.2 4.2 1.2 3.3 0.1 7.6 2.5 5.5 3.2 -1.7 0.6 -1.8 28.4 -0.1 30.9 1.2 1.7 1.1 1.9 -1.2 1.9 -1.4 0 -2.8 -0.4 -3.1 -1z"/>
  <path fill="url(#lg3)" d="M348.1 211.3 c-1.3 -0.3 -3.9 -1.3 -5.8 -2.4 -1.8 -1 -4.1 -1.9 -5.1 -1.9 -1 -0.1 -0.5 -0.6 1.3 -1.4 1.7 -0.7 3.4 -1.1 3.9 -0.8 0.5 0.3 0.6 0 0.2 -0.6 -0.4 -0.7 -0.4 -1.2 0.1 -1.2 0.4 0 0.9 -1 1 -2.3 0.3 -5.4 7.2 -16.5 9.4 -15.2 1 0.7 6.1 -4.4 5.5 -5.4 -0.3 -0.5 0.1 -1.4 0.8 -2 1.1 -0.9 2 -0.9 3.8 0 1.3 0.7 3 1.5 3.8 1.9 2.1 1 2.6 6.8 0.6 7.6 -0.9 0.3 -1.6 1.3 -1.6 2.1 0 0.9 -1.5 3.2 -3.4 5.3 -1.8 2 -4.1 5.9 -5 8.6 -3 8.4 -3.5 8.9 -9.5 7.7z"/>
 </g>
 <g fill="#606972">
  <path fill="url(#lg2)" d="M282.5 352 c-0.3 -0.5 -1.7 -1 -3 -1 -1.3 0 -2.7 -0.4 -3 -1 -0.3 -0.5 -1.7 -1 -2.9 -1 -4.4 0 -5 -2.1 -4.9 -17 0.1 -7.7 0.6 -14.8 1.2 -15.9 1 -1.7 1.5 -1.8 4.3 -0.9 1.8 0.6 4.7 1.3 6.5 1.5 4.5 0.7 5.4 2.1 4.3 6.8 -0.5 2.2 -1.1 6.3 -1.4 9 -0.3 2.8 -0.6 5.2 -0.6 5.5 -0.1 0.3 -0.1 2.1 0 4.1 0.1 2.6 -0.4 3.8 -1.6 4.3 -1.5 0.6 -1.5 0.8 -0.2 2.4 1.9 2.2 3.1 4.2 2.4 4.2 -0.3 0 -0.8 -0.4 -1.1 -1z"/>
  <path d="M421 245.7 c0 -4 1.2 -5.1 5 -4.5 2 0.3 2 0.5 -1.4 4.3 l-3.5 4 -0.1 -3.8z"/>
  <path fill="url(#lg3)" d="M355 215.3 c-0.8 -0.3 -2.3 -1.4 -3.4 -2.5 -1.1 -1 -3 -1.8 -4.2 -1.8 -1.3 0 -2.6 -0.4 -2.9 -1 -0.4 -0.6 0.8 -1 2.8 -1 3.2 0 6.7 -2.3 5.5 -3.6 -1 -0.9 4.8 -11.8 7.6 -14.3 1.4 -1.4 2.6 -3.2 2.6 -4.2 0 -0.9 0.7 -1.9 1.5 -2.3 0.8 -0.3 1.5 -1.6 1.5 -3 l0 -2.5 5.3 2.8 c4.4 2.4 5.2 3.1 4.9 5.4 -0.3 3.1 -1.6 5.6 -6 11.9 -1.7 2.6 -3.2 5.2 -3.2 5.8 0 2.3 -4 9.8 -5.6 10.4 -1.9 0.7 -4.3 0.7 -6.4 -0.1z"/>
 </g>
 <g fill="#707780">
  <path fill="url(#lg2)" d="M270.5 348 c-0.3 -0.5 -1.4 -1 -2.5 -1 -1 0 -3.5 -0.9 -5.7 -1.9 -2.1 -1.1 -5.2 -2.5 -6.9 -3.2 -3.1 -1.3 -3.2 -1.4 -3.8 -9.9 -0.7 -9.3 0.1 -20 1.5 -20 0.5 0 0.9 -0.9 0.9 -1.9 0 -3.8 3.6 -2.9 17.2 4 1 0.5 2.5 0.9 3.3 0.9 2 0 1.9 0.6 -0.6 3.1 -1.6 1.6 -2 3.2 -1.9 8.2 0 3.4 0 6.9 -0.1 7.7 -0.3 5.7 0.5 12.2 1.7 12.7 0.8 0.3 1.4 0.9 1.4 1.4 0 1.2 -3.7 1.1 -4.5 -0.1z"/>
  <path d="M418 248.9 c0 -4.3 1.8 -6.2 5.6 -5.7 l2.6 0.3 -4 4.5 -4.1 4.5 -0.1 -3.6z"/>
  <path fill="url(#lg3)" d="M364 220.4 c-1.9 -1.4 -5.2 -3.3 -7.2 -4.2 -4.1 -1.8 -4.9 -3.2 -1.9 -3.2 1.1 0 2.7 -0.3 3.6 -0.6 1.8 -0.7 4 -5 3.6 -7.1 -0.1 -0.7 0.3 -1.3 0.9 -1.3 0.5 0 1 -0.7 1 -1.6 0 -0.9 1.5 -3.7 3.3 -6.3 3.2 -4.6 5 -7.9 6.1 -11.4 0.6 -1.7 0.8 -1.7 3.8 0.4 1.8 1.3 3.5 2.6 3.8 2.9 0.3 0.3 1.8 1.2 3.3 2 2.8 1.4 2.9 1.7 2.2 6.5 -0.3 2.7 -1.2 5.7 -2 6.5 -0.7 0.8 -3 4.6 -5 8.5 -6.2 12 -9 13.6 -15.5 8.9z"/>
 </g>
 <g fill="#8f969d">
  <path fill="url(#lg2)" d="M253.5 341 c-1.6 -0.9 -4.7 -2.7 -6.7 -3.8 -2.1 -1.2 -5.6 -3.4 -7.8 -4.8 l-4.1 -2.8 0.4 -6.5 c0.2 -3.6 1 -8.6 1.7 -11.1 0.7 -2.5 1.7 -6.4 2.3 -8.7 0.6 -2.4 1.7 -4.3 2.4 -4.3 1.3 0 6.8 2.9 11.3 5.9 1.4 0.9 3.7 2.3 5.2 3 2.8 1.4 2.9 3.1 0.2 3.1 -0.8 0 -1.4 1 -1.4 2.6 0 1.4 -0.4 2.3 -0.9 2 -0.5 -0.4 -0.7 0.3 -0.4 1.4 0.3 1.1 0.2 2.8 -0.2 3.7 -1.2 2.6 -0.5 18.5 0.7 20.1 1.7 2 0.6 2.1 -2.7 0.2z"/>
  <path d="M414.3 253.5 c-1.8 -2 -1.6 -2.8 1.1 -5.4 1.6 -1.5 3.3 -2.1 5.1 -1.9 l2.7 0.3 -3.8 4.2 c-3.3 3.6 -4.1 4.1 -5.1 2.8z"/>
  <path fill="url(#lg3)" d="M374.9 228 c-1.2 -1.2 -3.8 -3 -5.6 -4.1 -3.4 -2.1 -4.3 -3.9 -2 -3.9 2.1 0 5.3 -4 9.2 -11.5 2 -3.9 4.2 -7.7 5 -8.5 1.6 -1.9 2.5 -6.9 1.4 -7.6 -1.1 -0.6 -1.2 -3.4 -0.1 -3.4 0.4 0 2 1.1 3.6 2.5 1.6 1.4 4.9 3.8 7.3 5.3 4.1 2.6 4.2 2.8 3.6 6.7 -0.9 6.4 -2.8 9.5 -11.3 18.3 -4.3 4.5 -8.1 8.2 -8.3 8.2 -0.2 0 -1.5 -0.9 -2.8 -2z"/>
 </g>
 <g fill="#9ba1a8">
  <path fill="url(#lg2)" d="M232.3 327.7 c-7.6 -5.5 -8 -6.3 -6.4 -12.6 0.5 -2 1.5 -7 2.2 -11.1 0.9 -5.3 2 -8.2 3.6 -9.8 l2.3 -2.3 6.3 4.8 c3.5 2.6 6.2 5.2 5.9 5.6 -0.2 0.5 -0.9 0.6 -1.6 0.4 -0.8 -0.3 -1.6 1.1 -2.3 3.7 -0.6 2.2 -1.6 6.1 -2.2 8.6 -1.9 7 -2 12.3 -0.5 15.3 0.8 1.5 1.1 2.7 0.7 2.7 -0.5 0 -4 -2.4 -8 -5.3z"/>
  <path d="M425 240.7 c0 -2.5 0.5 -3.7 1.4 -3.7 2.2 0 2.6 3.7 0.5 5.6 -1.8 1.6 -1.9 1.6 -1.9 -1.9z"/>
  <path fill="url(#lg3)" d="M378.3 230.7 c-1.8 -1.2 -3.3 -2.5 -3.3 -2.9 0 -0.4 3.6 -4.4 8 -9 8.6 -9 11.5 -13.7 10.6 -17.3 -1.2 -4.8 3.1 -3.5 10.2 3.2 3 2.8 0.2 9.7 -6.3 15.8 -5.8 5.3 -10.2 8.9 -12.2 9.8 -1.3 0.6 -2.3 1.4 -2.3 1.9 0 1.3 -1.2 0.9 -4.7 -1.5z"/>
 </g>
 <g fill="#adb2b9">
  <path fill="url(#lg2)" d="M222.6 319.7 c-3 -3 -6 -6.6 -6.6 -8.1 -1.2 -3.3 -1.3 -11.3 -0.1 -12 0.5 -0.3 1.2 -3.2 1.6 -6.3 1.3 -10.8 5.1 -11.8 14 -3.9 l6 5.4 -2.3 1.8 c-2.4 2 -3.4 5.2 -5.3 16.4 -1.3 8.1 -1.3 8.1 -0.4 10.3 1.3 3.1 -1.2 1.8 -6.9 -3.6z"/>
  <path d="M423.2 242.5 c0.2 -3.3 0.7 -4.1 2.6 -4.3 3.1 -0.5 2.9 2.8 -0.4 5.9 l-2.5 2.4 0.3 -4z"/>
  <path fill="url(#lg3)" d="M382.5 233.9 c-1.6 -1.6 -3.4 -2.9 -3.8 -2.9 -1.1 0 1.2 -2.1 4.8 -4.4 2.8 -1.8 4.4 -3.1 10.6 -8.8 4.5 -4.1 7.9 -9.4 7.9 -12.4 0 -1.6 0.4 -2.4 0.8 -1.9 0.4 0.6 3.5 3.4 6.8 6.3 l6.2 5.3 -4.5 4.2 c-2.5 2.3 -6 5.6 -7.8 7.3 -1.8 1.7 -5 4.1 -7.1 5.4 -2.2 1.3 -4.1 2.7 -4.4 3 -0.3 0.4 -1.8 0.9 -3.5 1.2 -2.4 0.5 -3.6 0 -6 -2.3z"/>
 </g>
 <g fill="#bbc1c8">
  <path fill="url(#lg2)" d="M214.9 311.7 c-4.8 -5 -9.9 -10.8 -11.5 -12.7 -1.6 -1.9 -3.6 -4.2 -4.4 -5 -2.6 -2.5 -8 -10.8 -8 -12.3 0 -3.6 3 -7.9 8.7 -12.1 3.3 -2.5 6.7 -4.6 7.5 -4.6 1.3 0 12.5 11.5 19.2 19.6 2.5 3.1 2.5 5.4 -0.1 3.3 -2.4 -2 -5 1.6 -5.8 7.9 -0.4 3.1 -1.1 6.2 -1.5 6.7 -0.9 1.1 -0.8 2.9 0.4 5.7 0.5 1 0.6 2.3 0.3 3 -0.2 0.7 0.7 3.2 2 5.6 1.4 2.3 2.3 4.2 2.1 4.2 -0.1 0 -4.2 -4.2 -8.9 -9.3z"/>
  <path fill="url(#lg3)" d="M396.9 251.3 c-0.9 -0.2 -2.7 -2.4 -4 -4.9 -1.3 -2.5 -4 -6.3 -6.1 -8.5 -3.8 -3.9 -3.8 -4 -1.6 -4.8 1.3 -0.5 2.6 -0.7 3.1 -0.4 0.4 0.2 0.7 0 0.7 -0.4 0 -0.5 1.6 -1.7 3.5 -2.7 1.9 -1.1 3.5 -2.4 3.5 -2.9 0 -0.6 0.3 -0.8 0.6 -0.5 0.3 0.4 2.5 -1.4 5 -3.8 2.4 -2.5 4.4 -4.1 4.4 -3.7 0 0.4 0.8 -0.4 1.7 -1.7 1 -1.4 1.7 -2.7 1.6 -3 -0.1 -0.3 0.9 -0.7 2.2 -0.8 1.8 -0.1 4.2 1.6 9 6.4 3.6 3.6 6.5 7.1 6.5 7.9 0 0.7 0.3 2.1 0.6 3 1.1 2.7 -11.2 13.6 -20 17.9 -4 2 -7.7 3.5 -8.2 3.5 -0.5 -0.1 -1.6 -0.3 -2.5 -0.6z"/>
  <path d="M418 247.9 c0 -4.6 3.5 -8.2 7.6 -7.7 l2.8 0.3 -5.2 5.5 -5.1 5.5 -0.1 -3.6z"/>
 </g>
 <g fill="#dfe2e5">
  <path fill="url(#lg3)" d="M407.5 252.9 c-9.4 -0.6 -11.7 -1.3 -13.4 -4.1 -1.2 -1.9 -1.1 -2 0.6 -1.3 2.9 1.2 3.7 1 10.7 -2.5 8.2 -4 19.6 -14.5 19.6 -18 0 -1.8 0.3 -2.1 1.1 -1.3 0.6 0.6 1.3 4.2 1.6 8 l0.4 6.8 -6.3 6.5 -6.3 6.5 -8 -0.6z"/>
 </g>
</svg>